<mxfile host="65bd71144e">
    <diagram id="LKgtK1Qau0dMBLoLUTm4" name="Page-1">
        <mxGraphModel dx="812" dy="571" grid="1" gridSize="10" guides="1" tooltips="1" connect="1" arrows="1" fold="1" page="1" pageScale="1" pageWidth="850" pageHeight="1100" math="0" shadow="0">
            <root>
                <mxCell id="0"/>
                <mxCell id="1" parent="0"/>
                <mxCell id="102" value="" style="whiteSpace=wrap;html=1;aspect=fixed;" parent="1" vertex="1">
                    <mxGeometry x="574" y="464" width="276" height="276" as="geometry"/>
                </mxCell>
                <mxCell id="101" value="" style="whiteSpace=wrap;html=1;aspect=fixed;" parent="1" vertex="1">
                    <mxGeometry x="284" y="464" width="276" height="276" as="geometry"/>
                </mxCell>
                <mxCell id="100" value="" style="whiteSpace=wrap;html=1;aspect=fixed;" parent="1" vertex="1">
                    <mxGeometry y="464" width="276" height="276" as="geometry"/>
                </mxCell>
                <mxCell id="3" value="" style="ellipse;shape=cloud;whiteSpace=wrap;html=1;" parent="1" vertex="1">
                    <mxGeometry x="195" y="50" width="475" height="275" as="geometry"/>
                </mxCell>
                <mxCell id="2" value="" style="image;aspect=fixed;perimeter=ellipsePerimeter;html=1;align=center;shadow=0;dashed=0;spacingTop=3;image=img/lib/active_directory/generic_server.svg;" parent="1" vertex="1">
                    <mxGeometry x="300" y="135" width="47.6" height="85" as="geometry"/>
                </mxCell>
                <mxCell id="6" value="Server" style="text;html=1;align=center;verticalAlign=middle;whiteSpace=wrap;rounded=0;fontStyle=1;fontSize=14;" parent="1" vertex="1">
                    <mxGeometry x="293.8" y="220" width="60" height="30" as="geometry"/>
                </mxCell>
                <mxCell id="8" value="" style="shape=flexArrow;endArrow=classic;html=1;fillColor=#eeeeee;strokeColor=#CCCCCC;" parent="1" edge="1">
                    <mxGeometry width="50" height="50" relative="1" as="geometry">
                        <mxPoint x="240" y="257" as="sourcePoint"/>
                        <mxPoint x="80" y="450" as="targetPoint"/>
                    </mxGeometry>
                </mxCell>
                <mxCell id="18" value="" style="shape=flexArrow;endArrow=classic;html=1;fillColor=#eeeeee;strokeColor=#CCCCCC;" parent="1" edge="1">
                    <mxGeometry width="50" height="50" relative="1" as="geometry">
                        <mxPoint x="400" y="310" as="sourcePoint"/>
                        <mxPoint x="400" y="460" as="targetPoint"/>
                    </mxGeometry>
                </mxCell>
                <mxCell id="19" value="" style="shape=flexArrow;endArrow=classic;html=1;fillColor=#eeeeee;strokeColor=#CCCCCC;" parent="1" edge="1">
                    <mxGeometry width="50" height="50" relative="1" as="geometry">
                        <mxPoint x="570.0032517651471" y="280.00458967319184" as="sourcePoint"/>
                        <mxPoint x="660" y="460" as="targetPoint"/>
                    </mxGeometry>
                </mxCell>
                <mxCell id="20" value="" style="shape=flexArrow;endArrow=classic;html=1;fillColor=#666666;strokeColor=#CCCCCC;" parent="1" edge="1">
                    <mxGeometry width="50" height="50" relative="1" as="geometry">
                        <mxPoint x="120" y="460" as="sourcePoint"/>
                        <mxPoint x="275" y="277.06" as="targetPoint"/>
                    </mxGeometry>
                </mxCell>
                <mxCell id="21" value="Modelo agregado&lt;div&gt;N&lt;/div&gt;" style="text;html=1;align=center;verticalAlign=middle;whiteSpace=wrap;rounded=0;" parent="1" vertex="1">
                    <mxGeometry x="12.689999999999998" y="415.59000000000003" width="60" height="30" as="geometry"/>
                </mxCell>
                <mxCell id="23" value="" style="sketch=0;outlineConnect=0;fontColor=#ffffff;fillColor=#0050ef;strokeColor=#001DBC;dashed=0;verticalLabelPosition=bottom;verticalAlign=top;align=center;html=1;fontSize=12;fontStyle=0;aspect=fixed;pointerEvents=1;shape=mxgraph.aws4.iot_analytics_data_store;" parent="1" vertex="1">
                    <mxGeometry x="72.69" y="467.06" width="34.62" height="50" as="geometry"/>
                </mxCell>
                <mxCell id="24" value="" style="sketch=0;outlineConnect=0;fillColor=#a20025;strokeColor=#6F0000;dashed=0;verticalLabelPosition=bottom;verticalAlign=top;align=center;html=1;fontSize=12;fontStyle=0;aspect=fixed;pointerEvents=1;shape=mxgraph.aws4.iot_analytics_data_store;fontColor=#ffffff;" parent="1" vertex="1">
                    <mxGeometry x="347.6" y="467.06" width="34.62" height="50" as="geometry"/>
                </mxCell>
                <mxCell id="25" value="" style="sketch=0;outlineConnect=0;fontColor=#232F3E;gradientColor=none;fillColor=#7AA116;strokeColor=none;dashed=0;verticalLabelPosition=bottom;verticalAlign=top;align=center;html=1;fontSize=12;fontStyle=0;aspect=fixed;pointerEvents=1;shape=mxgraph.aws4.iot_analytics_data_store;" parent="1" vertex="1">
                    <mxGeometry x="650.3800000000001" y="468.53" width="34.62" height="50" as="geometry"/>
                </mxCell>
                <mxCell id="30" value="" style="verticalLabelPosition=bottom;shadow=0;dashed=0;align=center;html=1;verticalAlign=top;strokeWidth=1;shape=mxgraph.mockup.graphics.simpleIcon;strokeColor=#001DBC;fillColor=none;fontColor=#ffffff;" parent="1" vertex="1">
                    <mxGeometry x="40" y="635" width="50" height="50" as="geometry"/>
                </mxCell>
                <mxCell id="31" value="" style="verticalLabelPosition=bottom;shadow=0;dashed=0;align=center;html=1;verticalAlign=top;strokeWidth=1;shape=mxgraph.mockup.graphics.simpleIcon;strokeColor=#001DBC;fillColor=none;fontColor=#ffffff;" parent="1" vertex="1">
                    <mxGeometry x="115" y="635" width="50" height="50" as="geometry"/>
                </mxCell>
                <mxCell id="32" value="" style="verticalLabelPosition=bottom;shadow=0;dashed=0;align=center;html=1;verticalAlign=top;strokeWidth=1;shape=mxgraph.mockup.graphics.simpleIcon;strokeColor=#001DBC;fillColor=none;fontColor=#ffffff;" parent="1" vertex="1">
                    <mxGeometry x="190" y="635" width="50" height="50" as="geometry"/>
                </mxCell>
                <mxCell id="36" value="Cocoa Microgrid&amp;nbsp;" style="text;html=1;align=center;verticalAlign=middle;whiteSpace=wrap;rounded=0;fontSize=20;fontStyle=1" parent="1" vertex="1">
                    <mxGeometry x="55.379999999999995" y="710" width="180" height="30" as="geometry"/>
                </mxCell>
                <mxCell id="37" value="" style="verticalLabelPosition=bottom;shadow=0;dashed=0;align=center;html=1;verticalAlign=top;strokeWidth=1;shape=mxgraph.mockup.graphics.simpleIcon;strokeColor=#6F0000;fillColor=none;fontColor=#ffffff;" parent="1" vertex="1">
                    <mxGeometry x="310" y="560" width="50" height="50" as="geometry"/>
                </mxCell>
                <mxCell id="38" value="" style="verticalLabelPosition=bottom;shadow=0;dashed=0;align=center;html=1;verticalAlign=top;strokeWidth=1;shape=mxgraph.mockup.graphics.simpleIcon;strokeColor=#6F0000;fillColor=none;fontColor=#ffffff;" parent="1" vertex="1">
                    <mxGeometry x="385" y="560" width="50" height="50" as="geometry"/>
                </mxCell>
                <mxCell id="39" value="" style="verticalLabelPosition=bottom;shadow=0;dashed=0;align=center;html=1;verticalAlign=top;strokeWidth=1;shape=mxgraph.mockup.graphics.simpleIcon;strokeColor=#6F0000;fillColor=none;fontColor=#ffffff;" parent="1" vertex="1">
                    <mxGeometry x="460" y="560" width="50" height="50" as="geometry"/>
                </mxCell>
                <mxCell id="40" value="" style="verticalLabelPosition=bottom;shadow=0;dashed=0;align=center;html=1;verticalAlign=top;strokeWidth=1;shape=mxgraph.mockup.graphics.simpleIcon;strokeColor=#6F0000;fillColor=none;fontColor=#ffffff;" parent="1" vertex="1">
                    <mxGeometry x="310" y="635" width="50" height="50" as="geometry"/>
                </mxCell>
                <mxCell id="41" value="" style="verticalLabelPosition=bottom;shadow=0;dashed=0;align=center;html=1;verticalAlign=top;strokeWidth=1;shape=mxgraph.mockup.graphics.simpleIcon;strokeColor=#6F0000;fillColor=none;fontColor=#ffffff;" parent="1" vertex="1">
                    <mxGeometry x="385" y="635" width="50" height="50" as="geometry"/>
                </mxCell>
                <mxCell id="42" value="" style="verticalLabelPosition=bottom;shadow=0;dashed=0;align=center;html=1;verticalAlign=top;strokeWidth=1;shape=mxgraph.mockup.graphics.simpleIcon;strokeColor=#6F0000;fillColor=none;fontColor=#ffffff;" parent="1" vertex="1">
                    <mxGeometry x="460" y="635" width="50" height="50" as="geometry"/>
                </mxCell>
                <mxCell id="46" value="Eugene Microgrid&amp;nbsp;" style="text;html=1;align=center;verticalAlign=middle;whiteSpace=wrap;rounded=0;fontSize=20;fontStyle=1" parent="1" vertex="1">
                    <mxGeometry x="330" y="710" width="180" height="30" as="geometry"/>
                </mxCell>
                <mxCell id="68" value="" style="verticalLabelPosition=bottom;shadow=0;dashed=0;align=center;html=1;verticalAlign=top;strokeWidth=1;shape=mxgraph.mockup.graphics.simpleIcon;strokeColor=#2D7600;fillColor=none;fontColor=#ffffff;" parent="1" vertex="1">
                    <mxGeometry x="610" y="560" width="50" height="50" as="geometry"/>
                </mxCell>
                <mxCell id="69" value="" style="verticalLabelPosition=bottom;shadow=0;dashed=0;align=center;html=1;verticalAlign=top;strokeWidth=1;shape=mxgraph.mockup.graphics.simpleIcon;strokeColor=#2D7600;fillColor=none;fontColor=#ffffff;" parent="1" vertex="1">
                    <mxGeometry x="685" y="560" width="50" height="50" as="geometry"/>
                </mxCell>
                <mxCell id="70" value="" style="verticalLabelPosition=bottom;shadow=0;dashed=0;align=center;html=1;verticalAlign=top;strokeWidth=1;shape=mxgraph.mockup.graphics.simpleIcon;strokeColor=#2D7600;fillColor=none;fontColor=#ffffff;" parent="1" vertex="1">
                    <mxGeometry x="760" y="560" width="50" height="50" as="geometry"/>
                </mxCell>
                <mxCell id="71" value="" style="verticalLabelPosition=bottom;shadow=0;dashed=0;align=center;html=1;verticalAlign=top;strokeWidth=1;shape=mxgraph.mockup.graphics.simpleIcon;strokeColor=#2D7600;fillColor=none;fontColor=#ffffff;" parent="1" vertex="1">
                    <mxGeometry x="610" y="635" width="50" height="50" as="geometry"/>
                </mxCell>
                <mxCell id="72" value="" style="verticalLabelPosition=bottom;shadow=0;dashed=0;align=center;html=1;verticalAlign=top;strokeWidth=1;shape=mxgraph.mockup.graphics.simpleIcon;strokeColor=#2D7600;fillColor=none;fontColor=#ffffff;" parent="1" vertex="1">
                    <mxGeometry x="685" y="635" width="50" height="50" as="geometry"/>
                </mxCell>
                <mxCell id="73" value="" style="verticalLabelPosition=bottom;shadow=0;dashed=0;align=center;html=1;verticalAlign=top;strokeWidth=1;shape=mxgraph.mockup.graphics.simpleIcon;strokeColor=#2D7600;fillColor=none;fontColor=#ffffff;" parent="1" vertex="1">
                    <mxGeometry x="760" y="635" width="50" height="50" as="geometry"/>
                </mxCell>
                <mxCell id="77" value="Golden Microgrid&amp;nbsp;" style="text;html=1;align=center;verticalAlign=middle;whiteSpace=wrap;rounded=0;fontSize=20;fontStyle=1" parent="1" vertex="1">
                    <mxGeometry x="610" y="710" width="180" height="30" as="geometry"/>
                </mxCell>
                <mxCell id="78" value="" style="editableCssRules=.*;html=1;shape=image;verticalLabelPosition=bottom;labelBackgroundColor=#ffffff;verticalAlign=top;aspect=fixed;imageAspect=0;image=data:image/svg+xml,PHN2ZyB4bWxucz0iaHR0cDovL3d3dy53My5vcmcvMjAwMC9zdmciIHhtbG5zOnY9Imh0dHBzOi8vdmVjdGEuaW8vbmFubyIgd2lkdGg9IjE2Ljk3OTk5OTU0MjIzNjMyOCIgaGVpZ2h0PSIyMCIgdmlld0JveD0iMCAwIDE2Ljk3OTk5OTU0MjIzNjMyOCAyMCI+Cgk8c3R5bGUgdHlwZT0idGV4dC9jc3MiPi5zdDAgeyBmaWxsOiBsaWdodC1kYXJrKHJnYigxNzksIDE3OSwgMTc5KSwgcmdiKDgzLCA4MywgODMpKTsgfSAuc3QxIHsgZmlsbDogbGlnaHQtZGFyayhyZ2IoMTc5LCAxNzksIDE3OSksIHJnYig4MywgODMsIDgzKSk7IH0gLnN0MiB7IGZpbGw6IGxpZ2h0LWRhcmsocmdiKDIwNCwgMjA0LCAyMDQpLCByZ2IoMTgsIDE4LCAxOCkpOyB9IDwvc3R5bGU+Cgk8ZyBjbGFzcz0ic3QwIj4KCQk8cGF0aCBkPSJNOC40OSAxMC4yOUwuMjQgNS4zNSA4LjQ5LjU4bDguMjQgNC42N3pNMS43NiA1LjM2bDYuNzIgNCA2LjcyLTQuMTEtNi43MS0zLjc4eiIvPgoJCTxwYXRoIGQ9Ik04LjQ5IDE5LjQ0TC4yMSAxMy44OSA4LjQ5IDkuM2w4LjE1IDQuNjR6bS02LjgtNS41bDYuOCA0LjU2IDYuNy00LjUtNi43LTMuODJ6Ii8+Cgk8L2c+Cgk8ZyBjbGFzcz0ic3QxIj4KCQk8cGF0aCBkPSJNLjYxMyA1LjUwMmwuNjc1LS4zNzEgNy40NzcgMTMuNi0uNjc1LjM3MXoiLz4KCQk8cGF0aCBkPSJNOC4xOTQgMTguODI2bDcuMzAxLTEzLjU1OS42NzguMzY1LTcuMzAxIDEzLjU1OXpNLjcxNiAxMy42ODdMOC4wOTYuOTA0bC42NjcuMzg1LTcuMzggMTIuNzgzeiIvPgoJCTxwYXRoIGQ9Ik04LjE5NCAxLjIxNGwuNjY5LS4zODEgNy40MDUgMTIuOTg3LS42NjkuMzgxeiIvPgoJCTxwYXRoIGQ9Ik04LjEzLjk2aC43N1YxOC45aC0uNzd6TS41NSA1LjQzaC43N3Y4LjY2SC41NXptMTQuOTctLjA5aC43N1YxNGgtLjc3eiIvPgoJPC9nPgoJPGcgY2xhc3M9InN0MiI+CgkJPGNpcmNsZSBjeD0iOC41MiIgY3k9IjEuMDciIHI9IjEuMDciLz4KCQk8Y2lyY2xlIGN4PSIxNS45MSIgY3k9IjUuMzQiIHI9IjEuMDciLz4KCQk8Y2lyY2xlIGN4PSIxLjA3IiBjeT0iNS4zNCIgcj0iMS4wNyIvPgoJCTxjaXJjbGUgY3g9IjguNTIiIGN5PSI5LjkzIiByPSIxLjY4Ii8+CgkJPGNpcmNsZSBjeD0iMTUuOTEiIGN5PSIxMy45NCIgcj0iMS4wNyIvPgoJCTxjaXJjbGUgY3g9IjEuMDciIGN5PSIxMy45NCIgcj0iMS4wNyIvPgoJCTxjaXJjbGUgY3g9IjguNTIiIGN5PSIxOC45MyIgcj0iMS4wNyIvPgoJCTxwYXRoIGQ9Ik04LjQ5IDEwLjI5TC4yNCA1LjM1IDguNDkuNThsOC4yNCA0LjY3ek0xLjc2IDUuMzZsNi43MiA0IDYuNzItNC4xMS02LjcxLTMuNzh6Ii8+CgkJPHBhdGggZD0iTTguNDkgMTkuNDRMLjIxIDEzLjg5IDguNDkgOS4zbDguMTUgNC42NHptLTYuOC01LjVsNi44IDQuNTYgNi43LTQuNS02LjctMy44MnoiLz4KCQk8cGF0aCBkPSJNLjYxMyA1LjUwMmwuNjc1LS4zNzEgNy40NzcgMTMuNi0uNjc1LjM3MXoiLz4KCQk8cGF0aCBkPSJNOC4xOTQgMTguODI2bDcuMzAxLTEzLjU1OS42NzguMzY1LTcuMzAxIDEzLjU1OXpNLjcxNiAxMy42ODdMOC4wOTYuOTA0bC42NjcuMzg1LTcuMzggMTIuNzgzeiIvPgoJCTxwYXRoIGQ9Ik04LjE5NCAxLjIxNGwuNjY5LS4zODEgNy40MDUgMTIuOTg3LS42NjkuMzgxeiIvPgoJCTxwYXRoIGQ9Ik04LjEzLjk2aC43N1YxOC45aC0uNzd6TS41NSA1LjQzaC43N3Y4LjY2SC41NXptMTQuOTctLjA5aC43N1YxNGgtLjc3eiIvPgoJPC9nPgoJPGcgY2xhc3M9InN0MCI+CgkJPGNpcmNsZSBjeD0iOC41MiIgY3k9IjEuMDciIHI9IjEuMDciLz4KCQk8Y2lyY2xlIGN4PSIxNS45MSIgY3k9IjUuMzQiIHI9IjEuMDciLz4KCQk8Y2lyY2xlIGN4PSIxLjA3IiBjeT0iNS4zNCIgcj0iMS4wNyIvPgoJCTxjaXJjbGUgY3g9IjguNTIiIGN5PSI5LjkzIiByPSIxLjY4Ii8+CgkJPGNpcmNsZSBjeD0iMTUuOTEiIGN5PSIxMy45NCIgcj0iMS4wNyIvPgoJCTxjaXJjbGUgY3g9IjEuMDciIGN5PSIxMy45NCIgcj0iMS4wNyIvPgoJCTxjaXJjbGUgY3g9IjguNTIiIGN5PSIxOC45MyIgcj0iMS4wNyIvPgoJPC9nPgo8L3N2Zz4=;" parent="1" vertex="1">
                    <mxGeometry x="22.69" y="360" width="40" height="47.06" as="geometry"/>
                </mxCell>
                <mxCell id="79" value="" style="editableCssRules=.*;html=1;shape=image;verticalLabelPosition=bottom;labelBackgroundColor=#ffffff;verticalAlign=top;aspect=fixed;imageAspect=0;image=data:image/svg+xml,PHN2ZyB4bWxucz0iaHR0cDovL3d3dy53My5vcmcvMjAwMC9zdmciIHhtbG5zOnY9Imh0dHBzOi8vdmVjdGEuaW8vbmFubyIgd2lkdGg9IjE2Ljk3OTk5OTU0MjIzNjMyOCIgaGVpZ2h0PSIyMCIgdmlld0JveD0iMCAwIDE2Ljk3OTk5OTU0MjIzNjMyOCAyMCI+Cgk8c3R5bGUgdHlwZT0idGV4dC9jc3MiPi5zdDAgeyBmaWxsOiBsaWdodC1kYXJrKHJnYig1MSwgMTUzLCAyNTUpLCByZ2IoODMsIDgzLCA4MykpOyB9IC5zdDEgeyBmaWxsOiBsaWdodC1kYXJrKHJnYig1MSwgMTUzLCAyNTUpLCByZ2IoODMsIDgzLCA4MykpOyB9IC5zdDIgeyBmaWxsOiBsaWdodC1kYXJrKHJnYig1MSwgMTUzLCAyNTUpLCByZ2IoMTgsIDE4LCAxOCkpOyB9IDwvc3R5bGU+Cgk8ZyBjbGFzcz0ic3QwIj4KCQk8cGF0aCBkPSJNOC40OSAxMC4yOUwuMjQgNS4zNSA4LjQ5LjU4bDguMjQgNC42N3pNMS43NiA1LjM2bDYuNzIgNCA2LjcyLTQuMTEtNi43MS0zLjc4eiIvPgoJCTxwYXRoIGQ9Ik04LjQ5IDE5LjQ0TC4yMSAxMy44OSA4LjQ5IDkuM2w4LjE1IDQuNjR6bS02LjgtNS41bDYuOCA0LjU2IDYuNy00LjUtNi43LTMuODJ6Ii8+Cgk8L2c+Cgk8ZyBjbGFzcz0ic3QxIj4KCQk8cGF0aCBkPSJNLjYxMyA1LjUwMmwuNjc1LS4zNzEgNy40NzcgMTMuNi0uNjc1LjM3MXoiLz4KCQk8cGF0aCBkPSJNOC4xOTQgMTguODI2bDcuMzAxLTEzLjU1OS42NzguMzY1LTcuMzAxIDEzLjU1OXpNLjcxNiAxMy42ODdMOC4wOTYuOTA0bC42NjcuMzg1LTcuMzggMTIuNzgzeiIvPgoJCTxwYXRoIGQ9Ik04LjE5NCAxLjIxNGwuNjY5LS4zODEgNy40MDUgMTIuOTg3LS42NjkuMzgxeiIvPgoJCTxwYXRoIGQ9Ik04LjEzLjk2aC43N1YxOC45aC0uNzd6TS41NSA1LjQzaC43N3Y4LjY2SC41NXptMTQuOTctLjA5aC43N1YxNGgtLjc3eiIvPgoJPC9nPgoJPGcgY2xhc3M9InN0MiI+CgkJPGNpcmNsZSBjeD0iOC41MiIgY3k9IjEuMDciIHI9IjEuMDciLz4KCQk8Y2lyY2xlIGN4PSIxNS45MSIgY3k9IjUuMzQiIHI9IjEuMDciLz4KCQk8Y2lyY2xlIGN4PSIxLjA3IiBjeT0iNS4zNCIgcj0iMS4wNyIvPgoJCTxjaXJjbGUgY3g9IjguNTIiIGN5PSI5LjkzIiByPSIxLjY4Ii8+CgkJPGNpcmNsZSBjeD0iMTUuOTEiIGN5PSIxMy45NCIgcj0iMS4wNyIvPgoJCTxjaXJjbGUgY3g9IjEuMDciIGN5PSIxMy45NCIgcj0iMS4wNyIvPgoJCTxjaXJjbGUgY3g9IjguNTIiIGN5PSIxOC45MyIgcj0iMS4wNyIvPgoJCTxwYXRoIGQ9Ik04LjQ5IDEwLjI5TC4yNCA1LjM1IDguNDkuNThsOC4yNCA0LjY3ek0xLjc2IDUuMzZsNi43MiA0IDYuNzItNC4xMS02LjcxLTMuNzh6Ii8+CgkJPHBhdGggZD0iTTguNDkgMTkuNDRMLjIxIDEzLjg5IDguNDkgOS4zbDguMTUgNC42NHptLTYuOC01LjVsNi44IDQuNTYgNi43LTQuNS02LjctMy44MnoiLz4KCQk8cGF0aCBkPSJNLjYxMyA1LjUwMmwuNjc1LS4zNzEgNy40NzcgMTMuNi0uNjc1LjM3MXoiLz4KCQk8cGF0aCBkPSJNOC4xOTQgMTguODI2bDcuMzAxLTEzLjU1OS42NzguMzY1LTcuMzAxIDEzLjU1OXpNLjcxNiAxMy42ODdMOC4wOTYuOTA0bC42NjcuMzg1LTcuMzggMTIuNzgzeiIvPgoJCTxwYXRoIGQ9Ik04LjE5NCAxLjIxNGwuNjY5LS4zODEgNy40MDUgMTIuOTg3LS42NjkuMzgxeiIvPgoJCTxwYXRoIGQ9Ik04LjEzLjk2aC43N1YxOC45aC0uNzd6TS41NSA1LjQzaC43N3Y4LjY2SC41NXptMTQuOTctLjA5aC43N1YxNGgtLjc3eiIvPgoJPC9nPgoJPGcgY2xhc3M9InN0MCI+CgkJPGNpcmNsZSBjeD0iOC41MiIgY3k9IjEuMDciIHI9IjEuMDciLz4KCQk8Y2lyY2xlIGN4PSIxNS45MSIgY3k9IjUuMzQiIHI9IjEuMDciLz4KCQk8Y2lyY2xlIGN4PSIxLjA3IiBjeT0iNS4zNCIgcj0iMS4wNyIvPgoJCTxjaXJjbGUgY3g9IjguNTIiIGN5PSI5LjkzIiByPSIxLjY4Ii8+CgkJPGNpcmNsZSBjeD0iMTUuOTEiIGN5PSIxMy45NCIgcj0iMS4wNyIvPgoJCTxjaXJjbGUgY3g9IjEuMDciIGN5PSIxMy45NCIgcj0iMS4wNyIvPgoJCTxjaXJjbGUgY3g9IjguNTIiIGN5PSIxOC45MyIgcj0iMS4wNyIvPgoJPC9nPgo8L3N2Zz4=;" parent="1" vertex="1">
                    <mxGeometry x="167.31" y="470" width="40" height="47.06" as="geometry"/>
                </mxCell>
                <mxCell id="80" value="" style="editableCssRules=.*;html=1;shape=image;verticalLabelPosition=bottom;labelBackgroundColor=#ffffff;verticalAlign=top;aspect=fixed;imageAspect=0;image=data:image/svg+xml,PHN2ZyB4bWxucz0iaHR0cDovL3d3dy53My5vcmcvMjAwMC9zdmciIHhtbG5zOnY9Imh0dHBzOi8vdmVjdGEuaW8vbmFubyIgd2lkdGg9IjE2Ljk3OTk5OTU0MjIzNjMyOCIgaGVpZ2h0PSIyMCIgdmlld0JveD0iMCAwIDE2Ljk3OTk5OTU0MjIzNjMyOCAyMCI+Cgk8c3R5bGUgdHlwZT0idGV4dC9jc3MiPi5zdDAgeyBmaWxsOiBsaWdodC1kYXJrKHJnYigyMDQsIDAsIDApLCByZ2IoODMsIDgzLCA4MykpOyB9IC5zdDEgeyBmaWxsOiBsaWdodC1kYXJrKHJnYigyMDQsIDAsIDApLCByZ2IoODMsIDgzLCA4MykpOyB9IC5zdDIgeyBmaWxsOiBsaWdodC1kYXJrKHJnYigxNTMsIDAsIDApLCByZ2IoMTgsIDE4LCAxOCkpOyB9IDwvc3R5bGU+Cgk8ZyBjbGFzcz0ic3QwIj4KCQk8cGF0aCBkPSJNOC40OSAxMC4yOUwuMjQgNS4zNSA4LjQ5LjU4bDguMjQgNC42N3pNMS43NiA1LjM2bDYuNzIgNCA2LjcyLTQuMTEtNi43MS0zLjc4eiIvPgoJCTxwYXRoIGQ9Ik04LjQ5IDE5LjQ0TC4yMSAxMy44OSA4LjQ5IDkuM2w4LjE1IDQuNjR6bS02LjgtNS41bDYuOCA0LjU2IDYuNy00LjUtNi43LTMuODJ6Ii8+Cgk8L2c+Cgk8ZyBjbGFzcz0ic3QxIj4KCQk8cGF0aCBkPSJNLjYxMyA1LjUwMmwuNjc1LS4zNzEgNy40NzcgMTMuNi0uNjc1LjM3MXoiLz4KCQk8cGF0aCBkPSJNOC4xOTQgMTguODI2bDcuMzAxLTEzLjU1OS42NzguMzY1LTcuMzAxIDEzLjU1OXpNLjcxNiAxMy42ODdMOC4wOTYuOTA0bC42NjcuMzg1LTcuMzggMTIuNzgzeiIvPgoJCTxwYXRoIGQ9Ik04LjE5NCAxLjIxNGwuNjY5LS4zODEgNy40MDUgMTIuOTg3LS42NjkuMzgxeiIvPgoJCTxwYXRoIGQ9Ik04LjEzLjk2aC43N1YxOC45aC0uNzd6TS41NSA1LjQzaC43N3Y4LjY2SC41NXptMTQuOTctLjA5aC43N1YxNGgtLjc3eiIvPgoJPC9nPgoJPGcgY2xhc3M9InN0MiI+CgkJPGNpcmNsZSBjeD0iOC41MiIgY3k9IjEuMDciIHI9IjEuMDciLz4KCQk8Y2lyY2xlIGN4PSIxNS45MSIgY3k9IjUuMzQiIHI9IjEuMDciLz4KCQk8Y2lyY2xlIGN4PSIxLjA3IiBjeT0iNS4zNCIgcj0iMS4wNyIvPgoJCTxjaXJjbGUgY3g9IjguNTIiIGN5PSI5LjkzIiByPSIxLjY4Ii8+CgkJPGNpcmNsZSBjeD0iMTUuOTEiIGN5PSIxMy45NCIgcj0iMS4wNyIvPgoJCTxjaXJjbGUgY3g9IjEuMDciIGN5PSIxMy45NCIgcj0iMS4wNyIvPgoJCTxjaXJjbGUgY3g9IjguNTIiIGN5PSIxOC45MyIgcj0iMS4wNyIvPgoJCTxwYXRoIGQ9Ik04LjQ5IDEwLjI5TC4yNCA1LjM1IDguNDkuNThsOC4yNCA0LjY3ek0xLjc2IDUuMzZsNi43MiA0IDYuNzItNC4xMS02LjcxLTMuNzh6Ii8+CgkJPHBhdGggZD0iTTguNDkgMTkuNDRMLjIxIDEzLjg5IDguNDkgOS4zbDguMTUgNC42NHptLTYuOC01LjVsNi44IDQuNTYgNi43LTQuNS02LjctMy44MnoiLz4KCQk8cGF0aCBkPSJNLjYxMyA1LjUwMmwuNjc1LS4zNzEgNy40NzcgMTMuNi0uNjc1LjM3MXoiLz4KCQk8cGF0aCBkPSJNOC4xOTQgMTguODI2bDcuMzAxLTEzLjU1OS42NzguMzY1LTcuMzAxIDEzLjU1OXpNLjcxNiAxMy42ODdMOC4wOTYuOTA0bC42NjcuMzg1LTcuMzggMTIuNzgzeiIvPgoJCTxwYXRoIGQ9Ik04LjE5NCAxLjIxNGwuNjY5LS4zODEgNy40MDUgMTIuOTg3LS42NjkuMzgxeiIvPgoJCTxwYXRoIGQ9Ik04LjEzLjk2aC43N1YxOC45aC0uNzd6TS41NSA1LjQzaC43N3Y4LjY2SC41NXptMTQuOTctLjA5aC43N1YxNGgtLjc3eiIvPgoJPC9nPgoJPGcgY2xhc3M9InN0MCI+CgkJPGNpcmNsZSBjeD0iOC41MiIgY3k9IjEuMDciIHI9IjEuMDciLz4KCQk8Y2lyY2xlIGN4PSIxNS45MSIgY3k9IjUuMzQiIHI9IjEuMDciLz4KCQk8Y2lyY2xlIGN4PSIxLjA3IiBjeT0iNS4zNCIgcj0iMS4wNyIvPgoJCTxjaXJjbGUgY3g9IjguNTIiIGN5PSI5LjkzIiByPSIxLjY4Ii8+CgkJPGNpcmNsZSBjeD0iMTUuOTEiIGN5PSIxMy45NCIgcj0iMS4wNyIvPgoJCTxjaXJjbGUgY3g9IjEuMDciIGN5PSIxMy45NCIgcj0iMS4wNyIvPgoJCTxjaXJjbGUgY3g9IjguNTIiIGN5PSIxOC45MyIgcj0iMS4wNyIvPgoJPC9nPgo8L3N2Zz4=;" parent="1" vertex="1">
                    <mxGeometry x="435" y="470" width="40" height="47.06" as="geometry"/>
                </mxCell>
                <mxCell id="81" value="" style="shape=flexArrow;endArrow=classic;html=1;fillColor=#666666;strokeColor=#CCCCCC;" parent="1" edge="1">
                    <mxGeometry width="50" height="50" relative="1" as="geometry">
                        <mxPoint x="440" y="460" as="sourcePoint"/>
                        <mxPoint x="440" y="310" as="targetPoint"/>
                    </mxGeometry>
                </mxCell>
                <mxCell id="82" value="" style="editableCssRules=.*;html=1;shape=image;verticalLabelPosition=bottom;labelBackgroundColor=#ffffff;verticalAlign=top;aspect=fixed;imageAspect=0;image=data:image/svg+xml,PHN2ZyB4bWxucz0iaHR0cDovL3d3dy53My5vcmcvMjAwMC9zdmciIHhtbG5zOnY9Imh0dHBzOi8vdmVjdGEuaW8vbmFubyIgd2lkdGg9IjE2Ljk3OTk5OTU0MjIzNjMyOCIgaGVpZ2h0PSIyMCIgdmlld0JveD0iMCAwIDE2Ljk3OTk5OTU0MjIzNjMyOCAyMCI+Cgk8c3R5bGUgdHlwZT0idGV4dC9jc3MiPi5zdDAgeyBmaWxsOiBsaWdodC1kYXJrKHJnYigxNzksIDE3OSwgMTc5KSwgcmdiKDgzLCA4MywgODMpKTsgfSAuc3QxIHsgZmlsbDogbGlnaHQtZGFyayhyZ2IoMTc5LCAxNzksIDE3OSksIHJnYig4MywgODMsIDgzKSk7IH0gLnN0MiB7IGZpbGw6IGxpZ2h0LWRhcmsocmdiKDIwNCwgMjA0LCAyMDQpLCByZ2IoMTgsIDE4LCAxOCkpOyB9IDwvc3R5bGU+Cgk8ZyBjbGFzcz0ic3QwIj4KCQk8cGF0aCBkPSJNOC40OSAxMC4yOUwuMjQgNS4zNSA4LjQ5LjU4bDguMjQgNC42N3pNMS43NiA1LjM2bDYuNzIgNCA2LjcyLTQuMTEtNi43MS0zLjc4eiIvPgoJCTxwYXRoIGQ9Ik04LjQ5IDE5LjQ0TC4yMSAxMy44OSA4LjQ5IDkuM2w4LjE1IDQuNjR6bS02LjgtNS41bDYuOCA0LjU2IDYuNy00LjUtNi43LTMuODJ6Ii8+Cgk8L2c+Cgk8ZyBjbGFzcz0ic3QxIj4KCQk8cGF0aCBkPSJNLjYxMyA1LjUwMmwuNjc1LS4zNzEgNy40NzcgMTMuNi0uNjc1LjM3MXoiLz4KCQk8cGF0aCBkPSJNOC4xOTQgMTguODI2bDcuMzAxLTEzLjU1OS42NzguMzY1LTcuMzAxIDEzLjU1OXpNLjcxNiAxMy42ODdMOC4wOTYuOTA0bC42NjcuMzg1LTcuMzggMTIuNzgzeiIvPgoJCTxwYXRoIGQ9Ik04LjE5NCAxLjIxNGwuNjY5LS4zODEgNy40MDUgMTIuOTg3LS42NjkuMzgxeiIvPgoJCTxwYXRoIGQ9Ik04LjEzLjk2aC43N1YxOC45aC0uNzd6TS41NSA1LjQzaC43N3Y4LjY2SC41NXptMTQuOTctLjA5aC43N1YxNGgtLjc3eiIvPgoJPC9nPgoJPGcgY2xhc3M9InN0MiI+CgkJPGNpcmNsZSBjeD0iOC41MiIgY3k9IjEuMDciIHI9IjEuMDciLz4KCQk8Y2lyY2xlIGN4PSIxNS45MSIgY3k9IjUuMzQiIHI9IjEuMDciLz4KCQk8Y2lyY2xlIGN4PSIxLjA3IiBjeT0iNS4zNCIgcj0iMS4wNyIvPgoJCTxjaXJjbGUgY3g9IjguNTIiIGN5PSI5LjkzIiByPSIxLjY4Ii8+CgkJPGNpcmNsZSBjeD0iMTUuOTEiIGN5PSIxMy45NCIgcj0iMS4wNyIvPgoJCTxjaXJjbGUgY3g9IjEuMDciIGN5PSIxMy45NCIgcj0iMS4wNyIvPgoJCTxjaXJjbGUgY3g9IjguNTIiIGN5PSIxOC45MyIgcj0iMS4wNyIvPgoJCTxwYXRoIGQ9Ik04LjQ5IDEwLjI5TC4yNCA1LjM1IDguNDkuNThsOC4yNCA0LjY3ek0xLjc2IDUuMzZsNi43MiA0IDYuNzItNC4xMS02LjcxLTMuNzh6Ii8+CgkJPHBhdGggZD0iTTguNDkgMTkuNDRMLjIxIDEzLjg5IDguNDkgOS4zbDguMTUgNC42NHptLTYuOC01LjVsNi44IDQuNTYgNi43LTQuNS02LjctMy44MnoiLz4KCQk8cGF0aCBkPSJNLjYxMyA1LjUwMmwuNjc1LS4zNzEgNy40NzcgMTMuNi0uNjc1LjM3MXoiLz4KCQk8cGF0aCBkPSJNOC4xOTQgMTguODI2bDcuMzAxLTEzLjU1OS42NzguMzY1LTcuMzAxIDEzLjU1OXpNLjcxNiAxMy42ODdMOC4wOTYuOTA0bC42NjcuMzg1LTcuMzggMTIuNzgzeiIvPgoJCTxwYXRoIGQ9Ik04LjE5NCAxLjIxNGwuNjY5LS4zODEgNy40MDUgMTIuOTg3LS42NjkuMzgxeiIvPgoJCTxwYXRoIGQ9Ik04LjEzLjk2aC43N1YxOC45aC0uNzd6TS41NSA1LjQzaC43N3Y4LjY2SC41NXptMTQuOTctLjA5aC43N1YxNGgtLjc3eiIvPgoJPC9nPgoJPGcgY2xhc3M9InN0MCI+CgkJPGNpcmNsZSBjeD0iOC41MiIgY3k9IjEuMDciIHI9IjEuMDciLz4KCQk8Y2lyY2xlIGN4PSIxNS45MSIgY3k9IjUuMzQiIHI9IjEuMDciLz4KCQk8Y2lyY2xlIGN4PSIxLjA3IiBjeT0iNS4zNCIgcj0iMS4wNyIvPgoJCTxjaXJjbGUgY3g9IjguNTIiIGN5PSI5LjkzIiByPSIxLjY4Ii8+CgkJPGNpcmNsZSBjeD0iMTUuOTEiIGN5PSIxMy45NCIgcj0iMS4wNyIvPgoJCTxjaXJjbGUgY3g9IjEuMDciIGN5PSIxMy45NCIgcj0iMS4wNyIvPgoJCTxjaXJjbGUgY3g9IjguNTIiIGN5PSIxOC45MyIgcj0iMS4wNyIvPgoJPC9nPgo8L3N2Zz4=;" parent="1" vertex="1">
                    <mxGeometry x="330" y="348.53" width="40" height="47.06" as="geometry"/>
                </mxCell>
                <mxCell id="83" value="" style="editableCssRules=.*;html=1;shape=image;verticalLabelPosition=bottom;labelBackgroundColor=#ffffff;verticalAlign=top;aspect=fixed;imageAspect=0;image=data:image/svg+xml,PHN2ZyB4bWxucz0iaHR0cDovL3d3dy53My5vcmcvMjAwMC9zdmciIHhtbG5zOnY9Imh0dHBzOi8vdmVjdGEuaW8vbmFubyIgd2lkdGg9IjE2Ljk3OTk5OTU0MjIzNjMyOCIgaGVpZ2h0PSIyMCIgdmlld0JveD0iMCAwIDE2Ljk3OTk5OTU0MjIzNjMyOCAyMCI+Cgk8c3R5bGUgdHlwZT0idGV4dC9jc3MiPi5zdDAgeyBmaWxsOiBsaWdodC1kYXJrKHJnYigxNzksIDE3OSwgMTc5KSwgcmdiKDgzLCA4MywgODMpKTsgfSAuc3QxIHsgZmlsbDogbGlnaHQtZGFyayhyZ2IoMTc5LCAxNzksIDE3OSksIHJnYig4MywgODMsIDgzKSk7IH0gLnN0MiB7IGZpbGw6IGxpZ2h0LWRhcmsocmdiKDIwNCwgMjA0LCAyMDQpLCByZ2IoMTgsIDE4LCAxOCkpOyB9IDwvc3R5bGU+Cgk8ZyBjbGFzcz0ic3QwIj4KCQk8cGF0aCBkPSJNOC40OSAxMC4yOUwuMjQgNS4zNSA4LjQ5LjU4bDguMjQgNC42N3pNMS43NiA1LjM2bDYuNzIgNCA2LjcyLTQuMTEtNi43MS0zLjc4eiIvPgoJCTxwYXRoIGQ9Ik04LjQ5IDE5LjQ0TC4yMSAxMy44OSA4LjQ5IDkuM2w4LjE1IDQuNjR6bS02LjgtNS41bDYuOCA0LjU2IDYuNy00LjUtNi43LTMuODJ6Ii8+Cgk8L2c+Cgk8ZyBjbGFzcz0ic3QxIj4KCQk8cGF0aCBkPSJNLjYxMyA1LjUwMmwuNjc1LS4zNzEgNy40NzcgMTMuNi0uNjc1LjM3MXoiLz4KCQk8cGF0aCBkPSJNOC4xOTQgMTguODI2bDcuMzAxLTEzLjU1OS42NzguMzY1LTcuMzAxIDEzLjU1OXpNLjcxNiAxMy42ODdMOC4wOTYuOTA0bC42NjcuMzg1LTcuMzggMTIuNzgzeiIvPgoJCTxwYXRoIGQ9Ik04LjE5NCAxLjIxNGwuNjY5LS4zODEgNy40MDUgMTIuOTg3LS42NjkuMzgxeiIvPgoJCTxwYXRoIGQ9Ik04LjEzLjk2aC43N1YxOC45aC0uNzd6TS41NSA1LjQzaC43N3Y4LjY2SC41NXptMTQuOTctLjA5aC43N1YxNGgtLjc3eiIvPgoJPC9nPgoJPGcgY2xhc3M9InN0MiI+CgkJPGNpcmNsZSBjeD0iOC41MiIgY3k9IjEuMDciIHI9IjEuMDciLz4KCQk8Y2lyY2xlIGN4PSIxNS45MSIgY3k9IjUuMzQiIHI9IjEuMDciLz4KCQk8Y2lyY2xlIGN4PSIxLjA3IiBjeT0iNS4zNCIgcj0iMS4wNyIvPgoJCTxjaXJjbGUgY3g9IjguNTIiIGN5PSI5LjkzIiByPSIxLjY4Ii8+CgkJPGNpcmNsZSBjeD0iMTUuOTEiIGN5PSIxMy45NCIgcj0iMS4wNyIvPgoJCTxjaXJjbGUgY3g9IjEuMDciIGN5PSIxMy45NCIgcj0iMS4wNyIvPgoJCTxjaXJjbGUgY3g9IjguNTIiIGN5PSIxOC45MyIgcj0iMS4wNyIvPgoJCTxwYXRoIGQ9Ik04LjQ5IDEwLjI5TC4yNCA1LjM1IDguNDkuNThsOC4yNCA0LjY3ek0xLjc2IDUuMzZsNi43MiA0IDYuNzItNC4xMS02LjcxLTMuNzh6Ii8+CgkJPHBhdGggZD0iTTguNDkgMTkuNDRMLjIxIDEzLjg5IDguNDkgOS4zbDguMTUgNC42NHptLTYuOC01LjVsNi44IDQuNTYgNi43LTQuNS02LjctMy44MnoiLz4KCQk8cGF0aCBkPSJNLjYxMyA1LjUwMmwuNjc1LS4zNzEgNy40NzcgMTMuNi0uNjc1LjM3MXoiLz4KCQk8cGF0aCBkPSJNOC4xOTQgMTguODI2bDcuMzAxLTEzLjU1OS42NzguMzY1LTcuMzAxIDEzLjU1OXpNLjcxNiAxMy42ODdMOC4wOTYuOTA0bC42NjcuMzg1LTcuMzggMTIuNzgzeiIvPgoJCTxwYXRoIGQ9Ik04LjE5NCAxLjIxNGwuNjY5LS4zODEgNy40MDUgMTIuOTg3LS42NjkuMzgxeiIvPgoJCTxwYXRoIGQ9Ik04LjEzLjk2aC43N1YxOC45aC0uNzd6TS41NSA1LjQzaC43N3Y4LjY2SC41NXptMTQuOTctLjA5aC43N1YxNGgtLjc3eiIvPgoJPC9nPgoJPGcgY2xhc3M9InN0MCI+CgkJPGNpcmNsZSBjeD0iOC41MiIgY3k9IjEuMDciIHI9IjEuMDciLz4KCQk8Y2lyY2xlIGN4PSIxNS45MSIgY3k9IjUuMzQiIHI9IjEuMDciLz4KCQk8Y2lyY2xlIGN4PSIxLjA3IiBjeT0iNS4zNCIgcj0iMS4wNyIvPgoJCTxjaXJjbGUgY3g9IjguNTIiIGN5PSI5LjkzIiByPSIxLjY4Ii8+CgkJPGNpcmNsZSBjeD0iMTUuOTEiIGN5PSIxMy45NCIgcj0iMS4wNyIvPgoJCTxjaXJjbGUgY3g9IjEuMDciIGN5PSIxMy45NCIgcj0iMS4wNyIvPgoJCTxjaXJjbGUgY3g9IjguNTIiIGN5PSIxOC45MyIgcj0iMS4wNyIvPgoJPC9nPgo8L3N2Zz4=;" parent="1" vertex="1">
                    <mxGeometry x="560" y="348.53" width="40" height="47.06" as="geometry"/>
                </mxCell>
                <mxCell id="84" value="" style="editableCssRules=.*;html=1;shape=image;verticalLabelPosition=bottom;labelBackgroundColor=#ffffff;verticalAlign=top;aspect=fixed;imageAspect=0;image=data:image/svg+xml,PHN2ZyB4bWxucz0iaHR0cDovL3d3dy53My5vcmcvMjAwMC9zdmciIHhtbG5zOnY9Imh0dHBzOi8vdmVjdGEuaW8vbmFubyIgd2lkdGg9IjE2Ljk3OTk5OTU0MjIzNjMyOCIgaGVpZ2h0PSIyMCIgdmlld0JveD0iMCAwIDE2Ljk3OTk5OTU0MjIzNjMyOCAyMCI+Cgk8c3R5bGUgdHlwZT0idGV4dC9jc3MiPi5zdDAgeyBmaWxsOiBsaWdodC1kYXJrKHJnYig1MSwgMTUzLCAyNTUpLCByZ2IoODMsIDgzLCA4MykpOyB9IC5zdDEgeyBmaWxsOiBsaWdodC1kYXJrKHJnYig1MSwgMTUzLCAyNTUpLCByZ2IoODMsIDgzLCA4MykpOyB9IC5zdDIgeyBmaWxsOiBsaWdodC1kYXJrKHJnYig1MSwgMTUzLCAyNTUpLCByZ2IoMTgsIDE4LCAxOCkpOyB9IDwvc3R5bGU+Cgk8ZyBjbGFzcz0ic3QwIj4KCQk8cGF0aCBkPSJNOC40OSAxMC4yOUwuMjQgNS4zNSA4LjQ5LjU4bDguMjQgNC42N3pNMS43NiA1LjM2bDYuNzIgNCA2LjcyLTQuMTEtNi43MS0zLjc4eiIvPgoJCTxwYXRoIGQ9Ik04LjQ5IDE5LjQ0TC4yMSAxMy44OSA4LjQ5IDkuM2w4LjE1IDQuNjR6bS02LjgtNS41bDYuOCA0LjU2IDYuNy00LjUtNi43LTMuODJ6Ii8+Cgk8L2c+Cgk8ZyBjbGFzcz0ic3QxIj4KCQk8cGF0aCBkPSJNLjYxMyA1LjUwMmwuNjc1LS4zNzEgNy40NzcgMTMuNi0uNjc1LjM3MXoiLz4KCQk8cGF0aCBkPSJNOC4xOTQgMTguODI2bDcuMzAxLTEzLjU1OS42NzguMzY1LTcuMzAxIDEzLjU1OXpNLjcxNiAxMy42ODdMOC4wOTYuOTA0bC42NjcuMzg1LTcuMzggMTIuNzgzeiIvPgoJCTxwYXRoIGQ9Ik04LjE5NCAxLjIxNGwuNjY5LS4zODEgNy40MDUgMTIuOTg3LS42NjkuMzgxeiIvPgoJCTxwYXRoIGQ9Ik04LjEzLjk2aC43N1YxOC45aC0uNzd6TS41NSA1LjQzaC43N3Y4LjY2SC41NXptMTQuOTctLjA5aC43N1YxNGgtLjc3eiIvPgoJPC9nPgoJPGcgY2xhc3M9InN0MiI+CgkJPGNpcmNsZSBjeD0iOC41MiIgY3k9IjEuMDciIHI9IjEuMDciLz4KCQk8Y2lyY2xlIGN4PSIxNS45MSIgY3k9IjUuMzQiIHI9IjEuMDciLz4KCQk8Y2lyY2xlIGN4PSIxLjA3IiBjeT0iNS4zNCIgcj0iMS4wNyIvPgoJCTxjaXJjbGUgY3g9IjguNTIiIGN5PSI5LjkzIiByPSIxLjY4Ii8+CgkJPGNpcmNsZSBjeD0iMTUuOTEiIGN5PSIxMy45NCIgcj0iMS4wNyIvPgoJCTxjaXJjbGUgY3g9IjEuMDciIGN5PSIxMy45NCIgcj0iMS4wNyIvPgoJCTxjaXJjbGUgY3g9IjguNTIiIGN5PSIxOC45MyIgcj0iMS4wNyIvPgoJCTxwYXRoIGQ9Ik04LjQ5IDEwLjI5TC4yNCA1LjM1IDguNDkuNThsOC4yNCA0LjY3ek0xLjc2IDUuMzZsNi43MiA0IDYuNzItNC4xMS02LjcxLTMuNzh6Ii8+CgkJPHBhdGggZD0iTTguNDkgMTkuNDRMLjIxIDEzLjg5IDguNDkgOS4zbDguMTUgNC42NHptLTYuOC01LjVsNi44IDQuNTYgNi43LTQuNS02LjctMy44MnoiLz4KCQk8cGF0aCBkPSJNLjYxMyA1LjUwMmwuNjc1LS4zNzEgNy40NzcgMTMuNi0uNjc1LjM3MXoiLz4KCQk8cGF0aCBkPSJNOC4xOTQgMTguODI2bDcuMzAxLTEzLjU1OS42NzguMzY1LTcuMzAxIDEzLjU1OXpNLjcxNiAxMy42ODdMOC4wOTYuOTA0bC42NjcuMzg1LTcuMzggMTIuNzgzeiIvPgoJCTxwYXRoIGQ9Ik04LjE5NCAxLjIxNGwuNjY5LS4zODEgNy40MDUgMTIuOTg3LS42NjkuMzgxeiIvPgoJCTxwYXRoIGQ9Ik04LjEzLjk2aC43N1YxOC45aC0uNzd6TS41NSA1LjQzaC43N3Y4LjY2SC41NXptMTQuOTctLjA5aC43N1YxNGgtLjc3eiIvPgoJPC9nPgoJPGcgY2xhc3M9InN0MCI+CgkJPGNpcmNsZSBjeD0iOC41MiIgY3k9IjEuMDciIHI9IjEuMDciLz4KCQk8Y2lyY2xlIGN4PSIxNS45MSIgY3k9IjUuMzQiIHI9IjEuMDciLz4KCQk8Y2lyY2xlIGN4PSIxLjA3IiBjeT0iNS4zNCIgcj0iMS4wNyIvPgoJCTxjaXJjbGUgY3g9IjguNTIiIGN5PSI5LjkzIiByPSIxLjY4Ii8+CgkJPGNpcmNsZSBjeD0iMTUuOTEiIGN5PSIxMy45NCIgcj0iMS4wNyIvPgoJCTxjaXJjbGUgY3g9IjEuMDciIGN5PSIxMy45NCIgcj0iMS4wNyIvPgoJCTxjaXJjbGUgY3g9IjguNTIiIGN5PSIxOC45MyIgcj0iMS4wNyIvPgoJPC9nPgo8L3N2Zz4=;" parent="1" vertex="1">
                    <mxGeometry x="385" y="110" width="40" height="47.06" as="geometry"/>
                </mxCell>
                <mxCell id="85" value="" style="shape=flexArrow;endArrow=classic;html=1;fillColor=#666666;strokeColor=#CCCCCC;" parent="1" edge="1">
                    <mxGeometry width="50" height="50" relative="1" as="geometry">
                        <mxPoint x="720" y="460" as="sourcePoint"/>
                        <mxPoint x="610" y="270" as="targetPoint"/>
                    </mxGeometry>
                </mxCell>
                <mxCell id="86" value="" style="editableCssRules=.*;html=1;shape=image;verticalLabelPosition=bottom;labelBackgroundColor=#ffffff;verticalAlign=top;aspect=fixed;imageAspect=0;image=data:image/svg+xml,PHN2ZyB4bWxucz0iaHR0cDovL3d3dy53My5vcmcvMjAwMC9zdmciIHhtbG5zOnY9Imh0dHBzOi8vdmVjdGEuaW8vbmFubyIgd2lkdGg9IjE2Ljk3OTk5OTU0MjIzNjMyOCIgaGVpZ2h0PSIyMCIgdmlld0JveD0iMCAwIDE2Ljk3OTk5OTU0MjIzNjMyOCAyMCI+Cgk8c3R5bGUgdHlwZT0idGV4dC9jc3MiPi5zdDAgeyBmaWxsOiBsaWdodC1kYXJrKHJnYigyMDQsIDAsIDApLCByZ2IoODMsIDgzLCA4MykpOyB9IC5zdDEgeyBmaWxsOiBsaWdodC1kYXJrKHJnYigyMDQsIDAsIDApLCByZ2IoODMsIDgzLCA4MykpOyB9IC5zdDIgeyBmaWxsOiBsaWdodC1kYXJrKHJnYigxNTMsIDAsIDApLCByZ2IoMTgsIDE4LCAxOCkpOyB9IDwvc3R5bGU+Cgk8ZyBjbGFzcz0ic3QwIj4KCQk8cGF0aCBkPSJNOC40OSAxMC4yOUwuMjQgNS4zNSA4LjQ5LjU4bDguMjQgNC42N3pNMS43NiA1LjM2bDYuNzIgNCA2LjcyLTQuMTEtNi43MS0zLjc4eiIvPgoJCTxwYXRoIGQ9Ik04LjQ5IDE5LjQ0TC4yMSAxMy44OSA4LjQ5IDkuM2w4LjE1IDQuNjR6bS02LjgtNS41bDYuOCA0LjU2IDYuNy00LjUtNi43LTMuODJ6Ii8+Cgk8L2c+Cgk8ZyBjbGFzcz0ic3QxIj4KCQk8cGF0aCBkPSJNLjYxMyA1LjUwMmwuNjc1LS4zNzEgNy40NzcgMTMuNi0uNjc1LjM3MXoiLz4KCQk8cGF0aCBkPSJNOC4xOTQgMTguODI2bDcuMzAxLTEzLjU1OS42NzguMzY1LTcuMzAxIDEzLjU1OXpNLjcxNiAxMy42ODdMOC4wOTYuOTA0bC42NjcuMzg1LTcuMzggMTIuNzgzeiIvPgoJCTxwYXRoIGQ9Ik04LjE5NCAxLjIxNGwuNjY5LS4zODEgNy40MDUgMTIuOTg3LS42NjkuMzgxeiIvPgoJCTxwYXRoIGQ9Ik04LjEzLjk2aC43N1YxOC45aC0uNzd6TS41NSA1LjQzaC43N3Y4LjY2SC41NXptMTQuOTctLjA5aC43N1YxNGgtLjc3eiIvPgoJPC9nPgoJPGcgY2xhc3M9InN0MiI+CgkJPGNpcmNsZSBjeD0iOC41MiIgY3k9IjEuMDciIHI9IjEuMDciLz4KCQk8Y2lyY2xlIGN4PSIxNS45MSIgY3k9IjUuMzQiIHI9IjEuMDciLz4KCQk8Y2lyY2xlIGN4PSIxLjA3IiBjeT0iNS4zNCIgcj0iMS4wNyIvPgoJCTxjaXJjbGUgY3g9IjguNTIiIGN5PSI5LjkzIiByPSIxLjY4Ii8+CgkJPGNpcmNsZSBjeD0iMTUuOTEiIGN5PSIxMy45NCIgcj0iMS4wNyIvPgoJCTxjaXJjbGUgY3g9IjEuMDciIGN5PSIxMy45NCIgcj0iMS4wNyIvPgoJCTxjaXJjbGUgY3g9IjguNTIiIGN5PSIxOC45MyIgcj0iMS4wNyIvPgoJCTxwYXRoIGQ9Ik04LjQ5IDEwLjI5TC4yNCA1LjM1IDguNDkuNThsOC4yNCA0LjY3ek0xLjc2IDUuMzZsNi43MiA0IDYuNzItNC4xMS02LjcxLTMuNzh6Ii8+CgkJPHBhdGggZD0iTTguNDkgMTkuNDRMLjIxIDEzLjg5IDguNDkgOS4zbDguMTUgNC42NHptLTYuOC01LjVsNi44IDQuNTYgNi43LTQuNS02LjctMy44MnoiLz4KCQk8cGF0aCBkPSJNLjYxMyA1LjUwMmwuNjc1LS4zNzEgNy40NzcgMTMuNi0uNjc1LjM3MXoiLz4KCQk8cGF0aCBkPSJNOC4xOTQgMTguODI2bDcuMzAxLTEzLjU1OS42NzguMzY1LTcuMzAxIDEzLjU1OXpNLjcxNiAxMy42ODdMOC4wOTYuOTA0bC42NjcuMzg1LTcuMzggMTIuNzgzeiIvPgoJCTxwYXRoIGQ9Ik04LjE5NCAxLjIxNGwuNjY5LS4zODEgNy40MDUgMTIuOTg3LS42NjkuMzgxeiIvPgoJCTxwYXRoIGQ9Ik04LjEzLjk2aC43N1YxOC45aC0uNzd6TS41NSA1LjQzaC43N3Y4LjY2SC41NXptMTQuOTctLjA5aC43N1YxNGgtLjc3eiIvPgoJPC9nPgoJPGcgY2xhc3M9InN0MCI+CgkJPGNpcmNsZSBjeD0iOC41MiIgY3k9IjEuMDciIHI9IjEuMDciLz4KCQk8Y2lyY2xlIGN4PSIxNS45MSIgY3k9IjUuMzQiIHI9IjEuMDciLz4KCQk8Y2lyY2xlIGN4PSIxLjA3IiBjeT0iNS4zNCIgcj0iMS4wNyIvPgoJCTxjaXJjbGUgY3g9IjguNTIiIGN5PSI5LjkzIiByPSIxLjY4Ii8+CgkJPGNpcmNsZSBjeD0iMTUuOTEiIGN5PSIxMy45NCIgcj0iMS4wNyIvPgoJCTxjaXJjbGUgY3g9IjEuMDciIGN5PSIxMy45NCIgcj0iMS4wNyIvPgoJCTxjaXJjbGUgY3g9IjguNTIiIGN5PSIxOC45MyIgcj0iMS4wNyIvPgoJPC9nPgo8L3N2Zz4=;" parent="1" vertex="1">
                    <mxGeometry x="385" y="172.94" width="40" height="47.06" as="geometry"/>
                </mxCell>
                <mxCell id="87" value="" style="editableCssRules=.*;html=1;shape=image;verticalLabelPosition=bottom;labelBackgroundColor=#ffffff;verticalAlign=top;aspect=fixed;imageAspect=0;image=data:image/svg+xml,PHN2ZyB4bWxucz0iaHR0cDovL3d3dy53My5vcmcvMjAwMC9zdmciIHhtbG5zOnY9Imh0dHBzOi8vdmVjdGEuaW8vbmFubyIgd2lkdGg9IjE2Ljk3OTk5OTU0MjIzNjMyOCIgaGVpZ2h0PSIyMCIgdmlld0JveD0iMCAwIDE2Ljk3OTk5OTU0MjIzNjMyOCAyMCI+Cgk8c3R5bGUgdHlwZT0idGV4dC9jc3MiPi5zdDAgeyBmaWxsOiBsaWdodC1kYXJrKHJnYigwLCAyMDQsIDApLCByZ2IoODMsIDgzLCA4MykpOyB9IC5zdDEgeyBmaWxsOiBsaWdodC1kYXJrKHJnYigwLCAyMDQsIDApLCByZ2IoODMsIDgzLCA4MykpOyB9IC5zdDIgeyBmaWxsOiBsaWdodC1kYXJrKHJnYigwLCAyMDQsIDApLCByZ2IoMTgsIDE4LCAxOCkpOyB9IDwvc3R5bGU+Cgk8ZyBjbGFzcz0ic3QwIj4KCQk8cGF0aCBkPSJNOC40OSAxMC4yOUwuMjQgNS4zNSA4LjQ5LjU4bDguMjQgNC42N3pNMS43NiA1LjM2bDYuNzIgNCA2LjcyLTQuMTEtNi43MS0zLjc4eiIvPgoJCTxwYXRoIGQ9Ik04LjQ5IDE5LjQ0TC4yMSAxMy44OSA4LjQ5IDkuM2w4LjE1IDQuNjR6bS02LjgtNS41bDYuOCA0LjU2IDYuNy00LjUtNi43LTMuODJ6Ii8+Cgk8L2c+Cgk8ZyBjbGFzcz0ic3QxIj4KCQk8cGF0aCBkPSJNLjYxMyA1LjUwMmwuNjc1LS4zNzEgNy40NzcgMTMuNi0uNjc1LjM3MXoiLz4KCQk8cGF0aCBkPSJNOC4xOTQgMTguODI2bDcuMzAxLTEzLjU1OS42NzguMzY1LTcuMzAxIDEzLjU1OXpNLjcxNiAxMy42ODdMOC4wOTYuOTA0bC42NjcuMzg1LTcuMzggMTIuNzgzeiIvPgoJCTxwYXRoIGQ9Ik04LjE5NCAxLjIxNGwuNjY5LS4zODEgNy40MDUgMTIuOTg3LS42NjkuMzgxeiIvPgoJCTxwYXRoIGQ9Ik04LjEzLjk2aC43N1YxOC45aC0uNzd6TS41NSA1LjQzaC43N3Y4LjY2SC41NXptMTQuOTctLjA5aC43N1YxNGgtLjc3eiIvPgoJPC9nPgoJPGcgY2xhc3M9InN0MiI+CgkJPGNpcmNsZSBjeD0iOC41MiIgY3k9IjEuMDciIHI9IjEuMDciLz4KCQk8Y2lyY2xlIGN4PSIxNS45MSIgY3k9IjUuMzQiIHI9IjEuMDciLz4KCQk8Y2lyY2xlIGN4PSIxLjA3IiBjeT0iNS4zNCIgcj0iMS4wNyIvPgoJCTxjaXJjbGUgY3g9IjguNTIiIGN5PSI5LjkzIiByPSIxLjY4Ii8+CgkJPGNpcmNsZSBjeD0iMTUuOTEiIGN5PSIxMy45NCIgcj0iMS4wNyIvPgoJCTxjaXJjbGUgY3g9IjEuMDciIGN5PSIxMy45NCIgcj0iMS4wNyIvPgoJCTxjaXJjbGUgY3g9IjguNTIiIGN5PSIxOC45MyIgcj0iMS4wNyIvPgoJCTxwYXRoIGQ9Ik04LjQ5IDEwLjI5TC4yNCA1LjM1IDguNDkuNThsOC4yNCA0LjY3ek0xLjc2IDUuMzZsNi43MiA0IDYuNzItNC4xMS02LjcxLTMuNzh6Ii8+CgkJPHBhdGggZD0iTTguNDkgMTkuNDRMLjIxIDEzLjg5IDguNDkgOS4zbDguMTUgNC42NHptLTYuOC01LjVsNi44IDQuNTYgNi43LTQuNS02LjctMy44MnoiLz4KCQk8cGF0aCBkPSJNLjYxMyA1LjUwMmwuNjc1LS4zNzEgNy40NzcgMTMuNi0uNjc1LjM3MXoiLz4KCQk8cGF0aCBkPSJNOC4xOTQgMTguODI2bDcuMzAxLTEzLjU1OS42NzguMzY1LTcuMzAxIDEzLjU1OXpNLjcxNiAxMy42ODdMOC4wOTYuOTA0bC42NjcuMzg1LTcuMzggMTIuNzgzeiIvPgoJCTxwYXRoIGQ9Ik04LjE5NCAxLjIxNGwuNjY5LS4zODEgNy40MDUgMTIuOTg3LS42NjkuMzgxeiIvPgoJCTxwYXRoIGQ9Ik04LjEzLjk2aC43N1YxOC45aC0uNzd6TS41NSA1LjQzaC43N3Y4LjY2SC41NXptMTQuOTctLjA5aC43N1YxNGgtLjc3eiIvPgoJPC9nPgoJPGcgY2xhc3M9InN0MCI+CgkJPGNpcmNsZSBjeD0iOC41MiIgY3k9IjEuMDciIHI9IjEuMDciLz4KCQk8Y2lyY2xlIGN4PSIxNS45MSIgY3k9IjUuMzQiIHI9IjEuMDciLz4KCQk8Y2lyY2xlIGN4PSIxLjA3IiBjeT0iNS4zNCIgcj0iMS4wNyIvPgoJCTxjaXJjbGUgY3g9IjguNTIiIGN5PSI5LjkzIiByPSIxLjY4Ii8+CgkJPGNpcmNsZSBjeD0iMTUuOTEiIGN5PSIxMy45NCIgcj0iMS4wNyIvPgoJCTxjaXJjbGUgY3g9IjEuMDciIGN5PSIxMy45NCIgcj0iMS4wNyIvPgoJCTxjaXJjbGUgY3g9IjguNTIiIGN5PSIxOC45MyIgcj0iMS4wNyIvPgoJPC9nPgo8L3N2Zz4=;" parent="1" vertex="1">
                    <mxGeometry x="742.5" y="471.46999999999997" width="40" height="47.06" as="geometry"/>
                </mxCell>
                <mxCell id="88" value="" style="editableCssRules=.*;html=1;shape=image;verticalLabelPosition=bottom;labelBackgroundColor=#ffffff;verticalAlign=top;aspect=fixed;imageAspect=0;image=data:image/svg+xml,PHN2ZyB4bWxucz0iaHR0cDovL3d3dy53My5vcmcvMjAwMC9zdmciIHhtbG5zOnY9Imh0dHBzOi8vdmVjdGEuaW8vbmFubyIgd2lkdGg9IjE2Ljk3OTk5OTU0MjIzNjMyOCIgaGVpZ2h0PSIyMCIgdmlld0JveD0iMCAwIDE2Ljk3OTk5OTU0MjIzNjMyOCAyMCI+Cgk8c3R5bGUgdHlwZT0idGV4dC9jc3MiPi5zdDAgeyBmaWxsOiBsaWdodC1kYXJrKHJnYigwLCAyMDQsIDApLCByZ2IoODMsIDgzLCA4MykpOyB9IC5zdDEgeyBmaWxsOiBsaWdodC1kYXJrKHJnYigwLCAyMDQsIDApLCByZ2IoODMsIDgzLCA4MykpOyB9IC5zdDIgeyBmaWxsOiBsaWdodC1kYXJrKHJnYigwLCAyMDQsIDApLCByZ2IoMTgsIDE4LCAxOCkpOyB9IDwvc3R5bGU+Cgk8ZyBjbGFzcz0ic3QwIj4KCQk8cGF0aCBkPSJNOC40OSAxMC4yOUwuMjQgNS4zNSA4LjQ5LjU4bDguMjQgNC42N3pNMS43NiA1LjM2bDYuNzIgNCA2LjcyLTQuMTEtNi43MS0zLjc4eiIvPgoJCTxwYXRoIGQ9Ik04LjQ5IDE5LjQ0TC4yMSAxMy44OSA4LjQ5IDkuM2w4LjE1IDQuNjR6bS02LjgtNS41bDYuOCA0LjU2IDYuNy00LjUtNi43LTMuODJ6Ii8+Cgk8L2c+Cgk8ZyBjbGFzcz0ic3QxIj4KCQk8cGF0aCBkPSJNLjYxMyA1LjUwMmwuNjc1LS4zNzEgNy40NzcgMTMuNi0uNjc1LjM3MXoiLz4KCQk8cGF0aCBkPSJNOC4xOTQgMTguODI2bDcuMzAxLTEzLjU1OS42NzguMzY1LTcuMzAxIDEzLjU1OXpNLjcxNiAxMy42ODdMOC4wOTYuOTA0bC42NjcuMzg1LTcuMzggMTIuNzgzeiIvPgoJCTxwYXRoIGQ9Ik04LjE5NCAxLjIxNGwuNjY5LS4zODEgNy40MDUgMTIuOTg3LS42NjkuMzgxeiIvPgoJCTxwYXRoIGQ9Ik04LjEzLjk2aC43N1YxOC45aC0uNzd6TS41NSA1LjQzaC43N3Y4LjY2SC41NXptMTQuOTctLjA5aC43N1YxNGgtLjc3eiIvPgoJPC9nPgoJPGcgY2xhc3M9InN0MiI+CgkJPGNpcmNsZSBjeD0iOC41MiIgY3k9IjEuMDciIHI9IjEuMDciLz4KCQk8Y2lyY2xlIGN4PSIxNS45MSIgY3k9IjUuMzQiIHI9IjEuMDciLz4KCQk8Y2lyY2xlIGN4PSIxLjA3IiBjeT0iNS4zNCIgcj0iMS4wNyIvPgoJCTxjaXJjbGUgY3g9IjguNTIiIGN5PSI5LjkzIiByPSIxLjY4Ii8+CgkJPGNpcmNsZSBjeD0iMTUuOTEiIGN5PSIxMy45NCIgcj0iMS4wNyIvPgoJCTxjaXJjbGUgY3g9IjEuMDciIGN5PSIxMy45NCIgcj0iMS4wNyIvPgoJCTxjaXJjbGUgY3g9IjguNTIiIGN5PSIxOC45MyIgcj0iMS4wNyIvPgoJCTxwYXRoIGQ9Ik04LjQ5IDEwLjI5TC4yNCA1LjM1IDguNDkuNThsOC4yNCA0LjY3ek0xLjc2IDUuMzZsNi43MiA0IDYuNzItNC4xMS02LjcxLTMuNzh6Ii8+CgkJPHBhdGggZD0iTTguNDkgMTkuNDRMLjIxIDEzLjg5IDguNDkgOS4zbDguMTUgNC42NHptLTYuOC01LjVsNi44IDQuNTYgNi43LTQuNS02LjctMy44MnoiLz4KCQk8cGF0aCBkPSJNLjYxMyA1LjUwMmwuNjc1LS4zNzEgNy40NzcgMTMuNi0uNjc1LjM3MXoiLz4KCQk8cGF0aCBkPSJNOC4xOTQgMTguODI2bDcuMzAxLTEzLjU1OS42NzguMzY1LTcuMzAxIDEzLjU1OXpNLjcxNiAxMy42ODdMOC4wOTYuOTA0bC42NjcuMzg1LTcuMzggMTIuNzgzeiIvPgoJCTxwYXRoIGQ9Ik04LjE5NCAxLjIxNGwuNjY5LS4zODEgNy40MDUgMTIuOTg3LS42NjkuMzgxeiIvPgoJCTxwYXRoIGQ9Ik04LjEzLjk2aC43N1YxOC45aC0uNzd6TS41NSA1LjQzaC43N3Y4LjY2SC41NXptMTQuOTctLjA5aC43N1YxNGgtLjc3eiIvPgoJPC9nPgoJPGcgY2xhc3M9InN0MCI+CgkJPGNpcmNsZSBjeD0iOC41MiIgY3k9IjEuMDciIHI9IjEuMDciLz4KCQk8Y2lyY2xlIGN4PSIxNS45MSIgY3k9IjUuMzQiIHI9IjEuMDciLz4KCQk8Y2lyY2xlIGN4PSIxLjA3IiBjeT0iNS4zNCIgcj0iMS4wNyIvPgoJCTxjaXJjbGUgY3g9IjguNTIiIGN5PSI5LjkzIiByPSIxLjY4Ii8+CgkJPGNpcmNsZSBjeD0iMTUuOTEiIGN5PSIxMy45NCIgcj0iMS4wNyIvPgoJCTxjaXJjbGUgY3g9IjEuMDciIGN5PSIxMy45NCIgcj0iMS4wNyIvPgoJCTxjaXJjbGUgY3g9IjguNTIiIGN5PSIxOC45MyIgcj0iMS4wNyIvPgoJPC9nPgo8L3N2Zz4=;" parent="1" vertex="1">
                    <mxGeometry x="385" y="240" width="40" height="47.06" as="geometry"/>
                </mxCell>
                <mxCell id="89" value="" style="shape=flexArrow;endArrow=classic;html=1;fillColor=#eeeeee;strokeColor=#CCCCCC;" parent="1" edge="1">
                    <mxGeometry width="50" height="50" relative="1" as="geometry">
                        <mxPoint x="439.6032517651471" y="190.00458967319184" as="sourcePoint"/>
                        <mxPoint x="530.3999877929688" y="190" as="targetPoint"/>
                    </mxGeometry>
                </mxCell>
                <mxCell id="90" value="" style="editableCssRules=.*;html=1;shape=image;verticalLabelPosition=bottom;labelBackgroundColor=#ffffff;verticalAlign=top;aspect=fixed;imageAspect=0;image=data:image/svg+xml,PHN2ZyB4bWxucz0iaHR0cDovL3d3dy53My5vcmcvMjAwMC9zdmciIHhtbG5zOnY9Imh0dHBzOi8vdmVjdGEuaW8vbmFubyIgd2lkdGg9IjE2Ljk3OTk5OTU0MjIzNjMyOCIgaGVpZ2h0PSIyMCIgdmlld0JveD0iMCAwIDE2Ljk3OTk5OTU0MjIzNjMyOCAyMCI+Cgk8c3R5bGUgdHlwZT0idGV4dC9jc3MiPi5zdDAgeyBmaWxsOiBsaWdodC1kYXJrKHJnYigxNzksIDE3OSwgMTc5KSwgcmdiKDgzLCA4MywgODMpKTsgfSAuc3QxIHsgZmlsbDogbGlnaHQtZGFyayhyZ2IoMTc5LCAxNzksIDE3OSksIHJnYig4MywgODMsIDgzKSk7IH0gLnN0MiB7IGZpbGw6IGxpZ2h0LWRhcmsocmdiKDIwNCwgMjA0LCAyMDQpLCByZ2IoMTgsIDE4LCAxOCkpOyB9IDwvc3R5bGU+Cgk8ZyBjbGFzcz0ic3QwIj4KCQk8cGF0aCBkPSJNOC40OSAxMC4yOUwuMjQgNS4zNSA4LjQ5LjU4bDguMjQgNC42N3pNMS43NiA1LjM2bDYuNzIgNCA2LjcyLTQuMTEtNi43MS0zLjc4eiIvPgoJCTxwYXRoIGQ9Ik04LjQ5IDE5LjQ0TC4yMSAxMy44OSA4LjQ5IDkuM2w4LjE1IDQuNjR6bS02LjgtNS41bDYuOCA0LjU2IDYuNy00LjUtNi43LTMuODJ6Ii8+Cgk8L2c+Cgk8ZyBjbGFzcz0ic3QxIj4KCQk8cGF0aCBkPSJNLjYxMyA1LjUwMmwuNjc1LS4zNzEgNy40NzcgMTMuNi0uNjc1LjM3MXoiLz4KCQk8cGF0aCBkPSJNOC4xOTQgMTguODI2bDcuMzAxLTEzLjU1OS42NzguMzY1LTcuMzAxIDEzLjU1OXpNLjcxNiAxMy42ODdMOC4wOTYuOTA0bC42NjcuMzg1LTcuMzggMTIuNzgzeiIvPgoJCTxwYXRoIGQ9Ik04LjE5NCAxLjIxNGwuNjY5LS4zODEgNy40MDUgMTIuOTg3LS42NjkuMzgxeiIvPgoJCTxwYXRoIGQ9Ik04LjEzLjk2aC43N1YxOC45aC0uNzd6TS41NSA1LjQzaC43N3Y4LjY2SC41NXptMTQuOTctLjA5aC43N1YxNGgtLjc3eiIvPgoJPC9nPgoJPGcgY2xhc3M9InN0MiI+CgkJPGNpcmNsZSBjeD0iOC41MiIgY3k9IjEuMDciIHI9IjEuMDciLz4KCQk8Y2lyY2xlIGN4PSIxNS45MSIgY3k9IjUuMzQiIHI9IjEuMDciLz4KCQk8Y2lyY2xlIGN4PSIxLjA3IiBjeT0iNS4zNCIgcj0iMS4wNyIvPgoJCTxjaXJjbGUgY3g9IjguNTIiIGN5PSI5LjkzIiByPSIxLjY4Ii8+CgkJPGNpcmNsZSBjeD0iMTUuOTEiIGN5PSIxMy45NCIgcj0iMS4wNyIvPgoJCTxjaXJjbGUgY3g9IjEuMDciIGN5PSIxMy45NCIgcj0iMS4wNyIvPgoJCTxjaXJjbGUgY3g9IjguNTIiIGN5PSIxOC45MyIgcj0iMS4wNyIvPgoJCTxwYXRoIGQ9Ik04LjQ5IDEwLjI5TC4yNCA1LjM1IDguNDkuNThsOC4yNCA0LjY3ek0xLjc2IDUuMzZsNi43MiA0IDYuNzItNC4xMS02LjcxLTMuNzh6Ii8+CgkJPHBhdGggZD0iTTguNDkgMTkuNDRMLjIxIDEzLjg5IDguNDkgOS4zbDguMTUgNC42NHptLTYuOC01LjVsNi44IDQuNTYgNi43LTQuNS02LjctMy44MnoiLz4KCQk8cGF0aCBkPSJNLjYxMyA1LjUwMmwuNjc1LS4zNzEgNy40NzcgMTMuNi0uNjc1LjM3MXoiLz4KCQk8cGF0aCBkPSJNOC4xOTQgMTguODI2bDcuMzAxLTEzLjU1OS42NzguMzY1LTcuMzAxIDEzLjU1OXpNLjcxNiAxMy42ODdMOC4wOTYuOTA0bC42NjcuMzg1LTcuMzggMTIuNzgzeiIvPgoJCTxwYXRoIGQ9Ik04LjE5NCAxLjIxNGwuNjY5LS4zODEgNy40MDUgMTIuOTg3LS42NjkuMzgxeiIvPgoJCTxwYXRoIGQ9Ik04LjEzLjk2aC43N1YxOC45aC0uNzd6TS41NSA1LjQzaC43N3Y4LjY2SC41NXptMTQuOTctLjA5aC43N1YxNGgtLjc3eiIvPgoJPC9nPgoJPGcgY2xhc3M9InN0MCI+CgkJPGNpcmNsZSBjeD0iOC41MiIgY3k9IjEuMDciIHI9IjEuMDciLz4KCQk8Y2lyY2xlIGN4PSIxNS45MSIgY3k9IjUuMzQiIHI9IjEuMDciLz4KCQk8Y2lyY2xlIGN4PSIxLjA3IiBjeT0iNS4zNCIgcj0iMS4wNyIvPgoJCTxjaXJjbGUgY3g9IjguNTIiIGN5PSI5LjkzIiByPSIxLjY4Ii8+CgkJPGNpcmNsZSBjeD0iMTUuOTEiIGN5PSIxMy45NCIgcj0iMS4wNyIvPgoJCTxjaXJjbGUgY3g9IjEuMDciIGN5PSIxMy45NCIgcj0iMS4wNyIvPgoJCTxjaXJjbGUgY3g9IjguNTIiIGN5PSIxOC45MyIgcj0iMS4wNyIvPgoJPC9nPgo8L3N2Zz4=;" parent="1" vertex="1">
                    <mxGeometry x="540" y="160" width="40" height="47.06" as="geometry"/>
                </mxCell>
                <mxCell id="91" value="Data local Cocoa" style="text;html=1;align=center;verticalAlign=middle;whiteSpace=wrap;rounded=0;" parent="1" vertex="1">
                    <mxGeometry x="60" y="520" width="60" height="30" as="geometry"/>
                </mxCell>
                <mxCell id="92" value="Data local Eugene" style="text;html=1;align=center;verticalAlign=middle;whiteSpace=wrap;rounded=0;" parent="1" vertex="1">
                    <mxGeometry x="334.91" y="520" width="60" height="30" as="geometry"/>
                </mxCell>
                <mxCell id="93" value="Data local Golden" style="text;html=1;align=center;verticalAlign=middle;whiteSpace=wrap;rounded=0;" parent="1" vertex="1">
                    <mxGeometry x="637.5000000000001" y="520" width="60" height="30" as="geometry"/>
                </mxCell>
                <mxCell id="95" value="" style="endArrow=classic;html=1;" parent="1" edge="1">
                    <mxGeometry width="50" height="50" relative="1" as="geometry">
                        <mxPoint x="107.31" y="495.97" as="sourcePoint"/>
                        <mxPoint x="167.31" y="495.97" as="targetPoint"/>
                    </mxGeometry>
                </mxCell>
                <mxCell id="96" value="" style="endArrow=classic;html=1;" parent="1" edge="1">
                    <mxGeometry width="50" height="50" relative="1" as="geometry">
                        <mxPoint x="380" y="495.97" as="sourcePoint"/>
                        <mxPoint x="440" y="495.97" as="targetPoint"/>
                    </mxGeometry>
                </mxCell>
                <mxCell id="97" value="" style="endArrow=classic;html=1;" parent="1" edge="1">
                    <mxGeometry width="50" height="50" relative="1" as="geometry">
                        <mxPoint x="685" y="492.91" as="sourcePoint"/>
                        <mxPoint x="745" y="492.91" as="targetPoint"/>
                    </mxGeometry>
                </mxCell>
                <mxCell id="98" value="" style="editableCssRules=.*;html=1;shape=image;verticalLabelPosition=bottom;labelBackgroundColor=#ffffff;verticalAlign=top;aspect=fixed;imageAspect=0;image=data:image/svg+xml,PHN2ZyB4bWxucz0iaHR0cDovL3d3dy53My5vcmcvMjAwMC9zdmciIHhtbG5zOnY9Imh0dHBzOi8vdmVjdGEuaW8vbmFubyIgd2lkdGg9IjE2Ljk3OTk5OTU0MjIzNjMyOCIgaGVpZ2h0PSIyMCIgdmlld0JveD0iMCAwIDE2Ljk3OTk5OTU0MjIzNjMyOCAyMCI+Cgk8c3R5bGUgdHlwZT0idGV4dC9jc3MiPi5zdDAgeyBmaWxsOiBsaWdodC1kYXJrKHJnYigwLCAyMDQsIDApLCByZ2IoODMsIDgzLCA4MykpOyB9IC5zdDEgeyBmaWxsOiBsaWdodC1kYXJrKHJnYigwLCAyMDQsIDApLCByZ2IoODMsIDgzLCA4MykpOyB9IC5zdDIgeyBmaWxsOiBsaWdodC1kYXJrKHJnYigwLCAyMDQsIDApLCByZ2IoMTgsIDE4LCAxOCkpOyB9IDwvc3R5bGU+Cgk8ZyBjbGFzcz0ic3QwIj4KCQk8cGF0aCBkPSJNOC40OSAxMC4yOUwuMjQgNS4zNSA4LjQ5LjU4bDguMjQgNC42N3pNMS43NiA1LjM2bDYuNzIgNCA2LjcyLTQuMTEtNi43MS0zLjc4eiIvPgoJCTxwYXRoIGQ9Ik04LjQ5IDE5LjQ0TC4yMSAxMy44OSA4LjQ5IDkuM2w4LjE1IDQuNjR6bS02LjgtNS41bDYuOCA0LjU2IDYuNy00LjUtNi43LTMuODJ6Ii8+Cgk8L2c+Cgk8ZyBjbGFzcz0ic3QxIj4KCQk8cGF0aCBkPSJNLjYxMyA1LjUwMmwuNjc1LS4zNzEgNy40NzcgMTMuNi0uNjc1LjM3MXoiLz4KCQk8cGF0aCBkPSJNOC4xOTQgMTguODI2bDcuMzAxLTEzLjU1OS42NzguMzY1LTcuMzAxIDEzLjU1OXpNLjcxNiAxMy42ODdMOC4wOTYuOTA0bC42NjcuMzg1LTcuMzggMTIuNzgzeiIvPgoJCTxwYXRoIGQ9Ik04LjE5NCAxLjIxNGwuNjY5LS4zODEgNy40MDUgMTIuOTg3LS42NjkuMzgxeiIvPgoJCTxwYXRoIGQ9Ik04LjEzLjk2aC43N1YxOC45aC0uNzd6TS41NSA1LjQzaC43N3Y4LjY2SC41NXptMTQuOTctLjA5aC43N1YxNGgtLjc3eiIvPgoJPC9nPgoJPGcgY2xhc3M9InN0MiI+CgkJPGNpcmNsZSBjeD0iOC41MiIgY3k9IjEuMDciIHI9IjEuMDciLz4KCQk8Y2lyY2xlIGN4PSIxNS45MSIgY3k9IjUuMzQiIHI9IjEuMDciLz4KCQk8Y2lyY2xlIGN4PSIxLjA3IiBjeT0iNS4zNCIgcj0iMS4wNyIvPgoJCTxjaXJjbGUgY3g9IjguNTIiIGN5PSI5LjkzIiByPSIxLjY4Ii8+CgkJPGNpcmNsZSBjeD0iMTUuOTEiIGN5PSIxMy45NCIgcj0iMS4wNyIvPgoJCTxjaXJjbGUgY3g9IjEuMDciIGN5PSIxMy45NCIgcj0iMS4wNyIvPgoJCTxjaXJjbGUgY3g9IjguNTIiIGN5PSIxOC45MyIgcj0iMS4wNyIvPgoJCTxwYXRoIGQ9Ik04LjQ5IDEwLjI5TC4yNCA1LjM1IDguNDkuNThsOC4yNCA0LjY3ek0xLjc2IDUuMzZsNi43MiA0IDYuNzItNC4xMS02LjcxLTMuNzh6Ii8+CgkJPHBhdGggZD0iTTguNDkgMTkuNDRMLjIxIDEzLjg5IDguNDkgOS4zbDguMTUgNC42NHptLTYuOC01LjVsNi44IDQuNTYgNi43LTQuNS02LjctMy44MnoiLz4KCQk8cGF0aCBkPSJNLjYxMyA1LjUwMmwuNjc1LS4zNzEgNy40NzcgMTMuNi0uNjc1LjM3MXoiLz4KCQk8cGF0aCBkPSJNOC4xOTQgMTguODI2bDcuMzAxLTEzLjU1OS42NzguMzY1LTcuMzAxIDEzLjU1OXpNLjcxNiAxMy42ODdMOC4wOTYuOTA0bC42NjcuMzg1LTcuMzggMTIuNzgzeiIvPgoJCTxwYXRoIGQ9Ik04LjE5NCAxLjIxNGwuNjY5LS4zODEgNy40MDUgMTIuOTg3LS42NjkuMzgxeiIvPgoJCTxwYXRoIGQ9Ik04LjEzLjk2aC43N1YxOC45aC0uNzd6TS41NSA1LjQzaC43N3Y4LjY2SC41NXptMTQuOTctLjA5aC43N1YxNGgtLjc3eiIvPgoJPC9nPgoJPGcgY2xhc3M9InN0MCI+CgkJPGNpcmNsZSBjeD0iOC41MiIgY3k9IjEuMDciIHI9IjEuMDciLz4KCQk8Y2lyY2xlIGN4PSIxNS45MSIgY3k9IjUuMzQiIHI9IjEuMDciLz4KCQk8Y2lyY2xlIGN4PSIxLjA3IiBjeT0iNS4zNCIgcj0iMS4wNyIvPgoJCTxjaXJjbGUgY3g9IjguNTIiIGN5PSI5LjkzIiByPSIxLjY4Ii8+CgkJPGNpcmNsZSBjeD0iMTUuOTEiIGN5PSIxMy45NCIgcj0iMS4wNyIvPgoJCTxjaXJjbGUgY3g9IjEuMDciIGN5PSIxMy45NCIgcj0iMS4wNyIvPgoJCTxjaXJjbGUgY3g9IjguNTIiIGN5PSIxOC45MyIgcj0iMS4wNyIvPgoJPC9nPgo8L3N2Zz4=;" parent="1" vertex="1">
                    <mxGeometry x="720" y="348.53" width="40" height="47.06" as="geometry"/>
                </mxCell>
                <mxCell id="99" value="" style="editableCssRules=.*;html=1;shape=image;verticalLabelPosition=bottom;labelBackgroundColor=#ffffff;verticalAlign=top;aspect=fixed;imageAspect=0;image=data:image/svg+xml,PHN2ZyB4bWxucz0iaHR0cDovL3d3dy53My5vcmcvMjAwMC9zdmciIHhtbG5zOnY9Imh0dHBzOi8vdmVjdGEuaW8vbmFubyIgd2lkdGg9IjE2Ljk3OTk5OTU0MjIzNjMyOCIgaGVpZ2h0PSIyMCIgdmlld0JveD0iMCAwIDE2Ljk3OTk5OTU0MjIzNjMyOCAyMCI+Cgk8c3R5bGUgdHlwZT0idGV4dC9jc3MiPi5zdDAgeyBmaWxsOiBsaWdodC1kYXJrKHJnYigyMDQsIDAsIDApLCByZ2IoODMsIDgzLCA4MykpOyB9IC5zdDEgeyBmaWxsOiBsaWdodC1kYXJrKHJnYigyMDQsIDAsIDApLCByZ2IoODMsIDgzLCA4MykpOyB9IC5zdDIgeyBmaWxsOiBsaWdodC1kYXJrKHJnYigxNTMsIDAsIDApLCByZ2IoMTgsIDE4LCAxOCkpOyB9IDwvc3R5bGU+Cgk8ZyBjbGFzcz0ic3QwIj4KCQk8cGF0aCBkPSJNOC40OSAxMC4yOUwuMjQgNS4zNSA4LjQ5LjU4bDguMjQgNC42N3pNMS43NiA1LjM2bDYuNzIgNCA2LjcyLTQuMTEtNi43MS0zLjc4eiIvPgoJCTxwYXRoIGQ9Ik04LjQ5IDE5LjQ0TC4yMSAxMy44OSA4LjQ5IDkuM2w4LjE1IDQuNjR6bS02LjgtNS41bDYuOCA0LjU2IDYuNy00LjUtNi43LTMuODJ6Ii8+Cgk8L2c+Cgk8ZyBjbGFzcz0ic3QxIj4KCQk8cGF0aCBkPSJNLjYxMyA1LjUwMmwuNjc1LS4zNzEgNy40NzcgMTMuNi0uNjc1LjM3MXoiLz4KCQk8cGF0aCBkPSJNOC4xOTQgMTguODI2bDcuMzAxLTEzLjU1OS42NzguMzY1LTcuMzAxIDEzLjU1OXpNLjcxNiAxMy42ODdMOC4wOTYuOTA0bC42NjcuMzg1LTcuMzggMTIuNzgzeiIvPgoJCTxwYXRoIGQ9Ik04LjE5NCAxLjIxNGwuNjY5LS4zODEgNy40MDUgMTIuOTg3LS42NjkuMzgxeiIvPgoJCTxwYXRoIGQ9Ik04LjEzLjk2aC43N1YxOC45aC0uNzd6TS41NSA1LjQzaC43N3Y4LjY2SC41NXptMTQuOTctLjA5aC43N1YxNGgtLjc3eiIvPgoJPC9nPgoJPGcgY2xhc3M9InN0MiI+CgkJPGNpcmNsZSBjeD0iOC41MiIgY3k9IjEuMDciIHI9IjEuMDciLz4KCQk8Y2lyY2xlIGN4PSIxNS45MSIgY3k9IjUuMzQiIHI9IjEuMDciLz4KCQk8Y2lyY2xlIGN4PSIxLjA3IiBjeT0iNS4zNCIgcj0iMS4wNyIvPgoJCTxjaXJjbGUgY3g9IjguNTIiIGN5PSI5LjkzIiByPSIxLjY4Ii8+CgkJPGNpcmNsZSBjeD0iMTUuOTEiIGN5PSIxMy45NCIgcj0iMS4wNyIvPgoJCTxjaXJjbGUgY3g9IjEuMDciIGN5PSIxMy45NCIgcj0iMS4wNyIvPgoJCTxjaXJjbGUgY3g9IjguNTIiIGN5PSIxOC45MyIgcj0iMS4wNyIvPgoJCTxwYXRoIGQ9Ik04LjQ5IDEwLjI5TC4yNCA1LjM1IDguNDkuNThsOC4yNCA0LjY3ek0xLjc2IDUuMzZsNi43MiA0IDYuNzItNC4xMS02LjcxLTMuNzh6Ii8+CgkJPHBhdGggZD0iTTguNDkgMTkuNDRMLjIxIDEzLjg5IDguNDkgOS4zbDguMTUgNC42NHptLTYuOC01LjVsNi44IDQuNTYgNi43LTQuNS02LjctMy44MnoiLz4KCQk8cGF0aCBkPSJNLjYxMyA1LjUwMmwuNjc1LS4zNzEgNy40NzcgMTMuNi0uNjc1LjM3MXoiLz4KCQk8cGF0aCBkPSJNOC4xOTQgMTguODI2bDcuMzAxLTEzLjU1OS42NzguMzY1LTcuMzAxIDEzLjU1OXpNLjcxNiAxMy42ODdMOC4wOTYuOTA0bC42NjcuMzg1LTcuMzggMTIuNzgzeiIvPgoJCTxwYXRoIGQ9Ik04LjE5NCAxLjIxNGwuNjY5LS4zODEgNy40MDUgMTIuOTg3LS42NjkuMzgxeiIvPgoJCTxwYXRoIGQ9Ik04LjEzLjk2aC43N1YxOC45aC0uNzd6TS41NSA1LjQzaC43N3Y4LjY2SC41NXptMTQuOTctLjA5aC43N1YxNGgtLjc3eiIvPgoJPC9nPgoJPGcgY2xhc3M9InN0MCI+CgkJPGNpcmNsZSBjeD0iOC41MiIgY3k9IjEuMDciIHI9IjEuMDciLz4KCQk8Y2lyY2xlIGN4PSIxNS45MSIgY3k9IjUuMzQiIHI9IjEuMDciLz4KCQk8Y2lyY2xlIGN4PSIxLjA3IiBjeT0iNS4zNCIgcj0iMS4wNyIvPgoJCTxjaXJjbGUgY3g9IjguNTIiIGN5PSI5LjkzIiByPSIxLjY4Ii8+CgkJPGNpcmNsZSBjeD0iMTUuOTEiIGN5PSIxMy45NCIgcj0iMS4wNyIvPgoJCTxjaXJjbGUgY3g9IjEuMDciIGN5PSIxMy45NCIgcj0iMS4wNyIvPgoJCTxjaXJjbGUgY3g9IjguNTIiIGN5PSIxOC45MyIgcj0iMS4wNyIvPgoJPC9nPgo8L3N2Zz4=;" parent="1" vertex="1">
                    <mxGeometry x="470" y="348.53" width="40" height="47.06" as="geometry"/>
                </mxCell>
                <mxCell id="103" value="" style="editableCssRules=.*;html=1;shape=image;verticalLabelPosition=bottom;labelBackgroundColor=#ffffff;verticalAlign=top;aspect=fixed;imageAspect=0;image=data:image/svg+xml,PHN2ZyB4bWxucz0iaHR0cDovL3d3dy53My5vcmcvMjAwMC9zdmciIHhtbG5zOnY9Imh0dHBzOi8vdmVjdGEuaW8vbmFubyIgd2lkdGg9IjE2Ljk3OTk5OTU0MjIzNjMyOCIgaGVpZ2h0PSIyMCIgdmlld0JveD0iMCAwIDE2Ljk3OTk5OTU0MjIzNjMyOCAyMCI+Cgk8c3R5bGUgdHlwZT0idGV4dC9jc3MiPi5zdDAgeyBmaWxsOiBsaWdodC1kYXJrKHJnYig1MSwgMTUzLCAyNTUpLCByZ2IoODMsIDgzLCA4MykpOyB9IC5zdDEgeyBmaWxsOiBsaWdodC1kYXJrKHJnYig1MSwgMTUzLCAyNTUpLCByZ2IoODMsIDgzLCA4MykpOyB9IC5zdDIgeyBmaWxsOiBsaWdodC1kYXJrKHJnYig1MSwgMTUzLCAyNTUpLCByZ2IoMTgsIDE4LCAxOCkpOyB9IDwvc3R5bGU+Cgk8ZyBjbGFzcz0ic3QwIj4KCQk8cGF0aCBkPSJNOC40OSAxMC4yOUwuMjQgNS4zNSA4LjQ5LjU4bDguMjQgNC42N3pNMS43NiA1LjM2bDYuNzIgNCA2LjcyLTQuMTEtNi43MS0zLjc4eiIvPgoJCTxwYXRoIGQ9Ik04LjQ5IDE5LjQ0TC4yMSAxMy44OSA4LjQ5IDkuM2w4LjE1IDQuNjR6bS02LjgtNS41bDYuOCA0LjU2IDYuNy00LjUtNi43LTMuODJ6Ii8+Cgk8L2c+Cgk8ZyBjbGFzcz0ic3QxIj4KCQk8cGF0aCBkPSJNLjYxMyA1LjUwMmwuNjc1LS4zNzEgNy40NzcgMTMuNi0uNjc1LjM3MXoiLz4KCQk8cGF0aCBkPSJNOC4xOTQgMTguODI2bDcuMzAxLTEzLjU1OS42NzguMzY1LTcuMzAxIDEzLjU1OXpNLjcxNiAxMy42ODdMOC4wOTYuOTA0bC42NjcuMzg1LTcuMzggMTIuNzgzeiIvPgoJCTxwYXRoIGQ9Ik04LjE5NCAxLjIxNGwuNjY5LS4zODEgNy40MDUgMTIuOTg3LS42NjkuMzgxeiIvPgoJCTxwYXRoIGQ9Ik04LjEzLjk2aC43N1YxOC45aC0uNzd6TS41NSA1LjQzaC43N3Y4LjY2SC41NXptMTQuOTctLjA5aC43N1YxNGgtLjc3eiIvPgoJPC9nPgoJPGcgY2xhc3M9InN0MiI+CgkJPGNpcmNsZSBjeD0iOC41MiIgY3k9IjEuMDciIHI9IjEuMDciLz4KCQk8Y2lyY2xlIGN4PSIxNS45MSIgY3k9IjUuMzQiIHI9IjEuMDciLz4KCQk8Y2lyY2xlIGN4PSIxLjA3IiBjeT0iNS4zNCIgcj0iMS4wNyIvPgoJCTxjaXJjbGUgY3g9IjguNTIiIGN5PSI5LjkzIiByPSIxLjY4Ii8+CgkJPGNpcmNsZSBjeD0iMTUuOTEiIGN5PSIxMy45NCIgcj0iMS4wNyIvPgoJCTxjaXJjbGUgY3g9IjEuMDciIGN5PSIxMy45NCIgcj0iMS4wNyIvPgoJCTxjaXJjbGUgY3g9IjguNTIiIGN5PSIxOC45MyIgcj0iMS4wNyIvPgoJCTxwYXRoIGQ9Ik04LjQ5IDEwLjI5TC4yNCA1LjM1IDguNDkuNThsOC4yNCA0LjY3ek0xLjc2IDUuMzZsNi43MiA0IDYuNzItNC4xMS02LjcxLTMuNzh6Ii8+CgkJPHBhdGggZD0iTTguNDkgMTkuNDRMLjIxIDEzLjg5IDguNDkgOS4zbDguMTUgNC42NHptLTYuOC01LjVsNi44IDQuNTYgNi43LTQuNS02LjctMy44MnoiLz4KCQk8cGF0aCBkPSJNLjYxMyA1LjUwMmwuNjc1LS4zNzEgNy40NzcgMTMuNi0uNjc1LjM3MXoiLz4KCQk8cGF0aCBkPSJNOC4xOTQgMTguODI2bDcuMzAxLTEzLjU1OS42NzguMzY1LTcuMzAxIDEzLjU1OXpNLjcxNiAxMy42ODdMOC4wOTYuOTA0bC42NjcuMzg1LTcuMzggMTIuNzgzeiIvPgoJCTxwYXRoIGQ9Ik04LjE5NCAxLjIxNGwuNjY5LS4zODEgNy40MDUgMTIuOTg3LS42NjkuMzgxeiIvPgoJCTxwYXRoIGQ9Ik04LjEzLjk2aC43N1YxOC45aC0uNzd6TS41NSA1LjQzaC43N3Y4LjY2SC41NXptMTQuOTctLjA5aC43N1YxNGgtLjc3eiIvPgoJPC9nPgoJPGcgY2xhc3M9InN0MCI+CgkJPGNpcmNsZSBjeD0iOC41MiIgY3k9IjEuMDciIHI9IjEuMDciLz4KCQk8Y2lyY2xlIGN4PSIxNS45MSIgY3k9IjUuMzQiIHI9IjEuMDciLz4KCQk8Y2lyY2xlIGN4PSIxLjA3IiBjeT0iNS4zNCIgcj0iMS4wNyIvPgoJCTxjaXJjbGUgY3g9IjguNTIiIGN5PSI5LjkzIiByPSIxLjY4Ii8+CgkJPGNpcmNsZSBjeD0iMTUuOTEiIGN5PSIxMy45NCIgcj0iMS4wNyIvPgoJCTxjaXJjbGUgY3g9IjEuMDciIGN5PSIxMy45NCIgcj0iMS4wNyIvPgoJCTxjaXJjbGUgY3g9IjguNTIiIGN5PSIxOC45MyIgcj0iMS4wNyIvPgoJPC9nPgo8L3N2Zz4=;" parent="1" vertex="1">
                    <mxGeometry x="220" y="368.53" width="40" height="47.06" as="geometry"/>
                </mxCell>
                <mxCell id="104" value="Modelo local Cocoa N+1" style="text;html=1;align=center;verticalAlign=middle;whiteSpace=wrap;rounded=0;" parent="1" vertex="1">
                    <mxGeometry x="194" y="425.59" width="90" height="30" as="geometry"/>
                </mxCell>
                <mxCell id="109" value="" style="verticalLabelPosition=bottom;shadow=0;dashed=0;align=center;html=1;verticalAlign=top;strokeWidth=1;shape=mxgraph.mockup.graphics.simpleIcon;strokeColor=#001DBC;fillColor=none;fontColor=#ffffff;" parent="1" vertex="1">
                    <mxGeometry x="190" y="560" width="50" height="50" as="geometry"/>
                </mxCell>
                <mxCell id="111" value="" style="verticalLabelPosition=bottom;shadow=0;dashed=0;align=center;html=1;verticalAlign=top;strokeWidth=1;shape=mxgraph.mockup.graphics.simpleIcon;strokeColor=#001DBC;fillColor=none;fontColor=#ffffff;" parent="1" vertex="1">
                    <mxGeometry x="115" y="560" width="50" height="50" as="geometry"/>
                </mxCell>
                <mxCell id="112" value="" style="verticalLabelPosition=bottom;shadow=0;dashed=0;align=center;html=1;verticalAlign=top;strokeWidth=1;shape=mxgraph.mockup.graphics.simpleIcon;strokeColor=#001DBC;fillColor=none;fontColor=#ffffff;" parent="1" vertex="1">
                    <mxGeometry x="40" y="560" width="50" height="50" as="geometry"/>
                </mxCell>
                <mxCell id="114" value="Modelo agregado N+1" style="text;html=1;align=center;verticalAlign=middle;whiteSpace=wrap;rounded=0;" parent="1" vertex="1">
                    <mxGeometry x="530" y="220.00000000000003" width="60" height="30" as="geometry"/>
                </mxCell>
                <mxCell id="115" value="Modelo agregado&lt;div&gt;N&lt;/div&gt;" style="text;html=1;align=center;verticalAlign=middle;whiteSpace=wrap;rounded=0;" parent="1" vertex="1">
                    <mxGeometry x="322.21999999999997" y="407.06000000000006" width="60" height="30" as="geometry"/>
                </mxCell>
                <mxCell id="116" value="Modelo local Eugene N +1" style="text;html=1;align=center;verticalAlign=middle;whiteSpace=wrap;rounded=0;" parent="1" vertex="1">
                    <mxGeometry x="460" y="415.59" width="80" height="30" as="geometry"/>
                </mxCell>
                <mxCell id="117" value="Modelo agregado&lt;div&gt;N&lt;/div&gt;" style="text;html=1;align=center;verticalAlign=middle;whiteSpace=wrap;rounded=0;" parent="1" vertex="1">
                    <mxGeometry x="550" y="415.59000000000003" width="60" height="30" as="geometry"/>
                </mxCell>
                <mxCell id="118" value="Modelo local Golden N +1" style="text;html=1;align=center;verticalAlign=middle;whiteSpace=wrap;rounded=0;" parent="1" vertex="1">
                    <mxGeometry x="710" y="407.05999999999995" width="80" height="30" as="geometry"/>
                </mxCell>
                <mxCell id="119" value="Modelo local específico" style="text;html=1;align=center;verticalAlign=middle;whiteSpace=wrap;rounded=0;" vertex="1" parent="1">
                    <mxGeometry x="142.31" y="517.06" width="90" height="30" as="geometry"/>
                </mxCell>
                <mxCell id="120" value="Modelo local específico" style="text;html=1;align=center;verticalAlign=middle;whiteSpace=wrap;rounded=0;" vertex="1" parent="1">
                    <mxGeometry x="410" y="520" width="90" height="30" as="geometry"/>
                </mxCell>
                <mxCell id="121" value="Modelo local específico" style="text;html=1;align=center;verticalAlign=middle;whiteSpace=wrap;rounded=0;" vertex="1" parent="1">
                    <mxGeometry x="717.5" y="520" width="90" height="30" as="geometry"/>
                </mxCell>
            </root>
        </mxGraphModel>
    </diagram>
</mxfile>